<?xml version="1.0" encoding="UTF-8" standalone="no"?>
<svg
   width="200"
   height="200"
   viewBox="0 0 200 200"
   version="1.1"
   id="svg19"
   sodipodi:docname="trade_plans.svg"
   inkscape:version="1.4.2 (ebf0e940, 2025-05-08)"
   xmlns:inkscape="http://www.inkscape.org/namespaces/inkscape"
   xmlns:sodipodi="http://sodipodi.sourceforge.net/DTD/sodipodi-0.dtd"
   xmlns="http://www.w3.org/2000/svg"
   xmlns:svg="http://www.w3.org/2000/svg">
  <sodipodi:namedview
     id="namedview19"
     pagecolor="#ffffff"
     bordercolor="#000000"
     borderopacity="0.25"
     inkscape:showpageshadow="2"
     inkscape:pageopacity="0.0"
     inkscape:pagecheckerboard="0"
     inkscape:deskcolor="#d1d1d1"
     inkscape:zoom="3.5630738"
     inkscape:cx="118.71772"
     inkscape:cy="83.354996"
     inkscape:window-width="1712"
     inkscape:window-height="1041"
     inkscape:window-x="1920"
     inkscape:window-y="66"
     inkscape:window-maximized="0"
     inkscape:current-layer="svg19" />
  <title
     id="title1">trade_plans</title>
  <defs
     id="defs10">
    <radialGradient
       id="gSteel"
       cx="50%"
       cy="50%"
       r="60%">
      <stop
         offset="0%"
         stop-color="#e9ecf2"
         id="stop1" />
      <stop
         offset="100%"
         stop-color="#95a2b3"
         id="stop2" />
    </radialGradient>
    <linearGradient
       id="gPrimary"
       x1="0"
       y1="0"
       x2="1"
       y2="1">
      <stop
         offset="0%"
         stop-color="#ffd166"
         id="stop3" />
      <stop
         offset="100%"
         stop-color="#ffb703"
         id="stop4" />
    </linearGradient>
    <linearGradient
       id="gPrimaryAlt"
       x1="0"
       y1="0"
       x2="1"
       y2="1">
      <stop
         offset="0%"
         stop-color="#ffc55a"
         id="stop5" />
      <stop
         offset="100%"
         stop-color="#f18a00"
         id="stop6" />
    </linearGradient>
    <linearGradient
       id="gSecondary"
       x1="28.102491"
       y1="199.83994"
       x2="128.02246"
       y2="99.919968"
       gradientTransform="scale(1.2810252,0.78062475)"
       gradientUnits="userSpaceOnUse">
      <stop
         offset="0%"
         stop-color="#a9c0ff"
         id="stop7" />
      <stop
         offset="100%"
         stop-color="#284b63"
         id="stop8" />
    </linearGradient>
    <linearGradient
       id="gSirenRed"
       x1="0"
       y1="0"
       x2="0"
       y2="1">
      <stop
         offset="0%"
         stop-color="#ff6b6b"
         id="stop9" />
      <stop
         offset="100%"
         stop-color="#c81d1d"
         id="stop10" />
    </linearGradient>
  </defs>
  <g
     stroke-linecap="butt"
     stroke-linejoin="miter"
     shape-rendering="crispEdges"
     vector-effect="non-scaling-stroke"
     id="g19"
     transform="matrix(1.1040453,0,0,1.1072355,-10.685189,-10.442895)">
    <circle
       cx="100"
       cy="100"
       fill="none"
       stroke="#22262b"
       stroke-width="2"
       id="circle10"
       r="88" />
    <circle
       cx="100"
       cy="100"
       r="84"
       fill="none"
       stroke="#22262b"
       stroke-width="1.4"
       id="circle11" />
    <circle
       cx="100"
       cy="100"
       r="70"
       fill="none"
       stroke="#26b7a9"
       stroke-width="2"
       opacity="0.18"
       id="circle12" />
    <circle
       cx="100"
       cy="100"
       r="56"
       fill="none"
       stroke="#fa5a00"
       stroke-width="2"
       opacity="0.14"
       id="circle13" />
    <g
       transform="translate(0,-12)"
       id="g18">
      <path
         d="m 36,116 32,-30 44,10 52,-18 v 54 l -52,16 -44,-10 -32,18 z"
         fill="url(#gSecondary)"
         id="path13"
         style="fill:url(#gSecondary)" />
      <path
         d="m 68,86 v 52 m 44,-42 v 52 m 52,-70 v 54"
         stroke="#ffffff"
         stroke-width="1.6"
         id="path14" />
      <path
         d="m 44,132 c 20,-12 42,-14 64,-22 22,-8 34,-8 52,-12"
         fill="none"
         stroke="#ffb703"
         stroke-width="2.4"
         stroke-dasharray="6, 3"
         id="path15" />
      <path
         d="m 40,124 c 20,-6 42,-12 60,-14"
         fill="none"
         stroke="#26b7a9"
         stroke-width="2"
         id="path16" />
      <circle
         cx="92"
         cy="110"
         r="3"
         fill="#ffb703"
         id="circle16" />
      <circle
         cx="142"
         cy="100"
         r="3"
         fill="#284b63"
         id="circle17" />
      <g
         id="g20"
         transform="translate(-8.7003531,-50.237523)">
        <path
           d="m 172,86 c 8,0 16,6 16,14 0,12 -16,28 -16,28 0,0 -16,-16 -16,-28 0,-8 8,-14 16,-14 z"
           fill="#ffb703"
           id="path17" />
        <circle
           cx="172"
           cy="96"
           r="5"
           fill="#ffffff"
           id="circle18" />
      </g>
    </g>
  </g>
</svg>
