<?xml version="1.0" encoding="UTF-8" standalone="no"?>
<svg
   id="svg"
   version="1.1"
   width="329.65579"
   height="100.03036"
   viewBox="0 0 329.65579 100.03036"
   sodipodi:docname="logo.svg"
   inkscape:version="1.4.2 (ebf0e940, 2025-05-08)"
   inkscape:export-filename="logo.png"
   inkscape:export-xdpi="74.550484"
   inkscape:export-ydpi="74.550484"
   xmlns:inkscape="http://www.inkscape.org/namespaces/inkscape"
   xmlns:sodipodi="http://sodipodi.sourceforge.net/DTD/sodipodi-0.dtd"
   xmlns="http://www.w3.org/2000/svg"
   xmlns:svg="http://www.w3.org/2000/svg">
  <defs
     id="defs1" />
  <sodipodi:namedview
     id="namedview1"
     pagecolor="#ffffff"
     bordercolor="#000000000"
     borderopacity="0.25"
     inkscape:showpageshadow="2"
     inkscape:pageopacity="0.0"
     inkscape:pagecheckerboard="0"
     inkscape:deskcolor="#d1d1d1"
     inkscape:zoom="1.04"
     inkscape:cx="423.07692"
     inkscape:cy="196.15385"
     inkscape:window-width="1920"
     inkscape:window-height="1027"
     inkscape:window-x="0"
     inkscape:window-y="25"
     inkscape:window-maximized="0"
     inkscape:current-layer="svgg"
     inkscape:export-bgcolor="#ffffffb8" />
  <g
     id="svgg"
     transform="translate(-36.34422,-157.61357)">
    <path
       id="path0"
       d="m 91.518,194.038 c -4.812,2.439 -4.938,9.684 -0.208,11.97 7.937,3.834 13.736,-8.005 5.883,-12.012 -1.899,-0.969 -3.707,-0.955 -5.675,0.042 m 18.382,-0.281 c -1.085,0.824 -1.085,62.51 0,62.956 1.251,0.513 9.213,0.334 9.767,-0.22 0.344,-0.344 0.573,-2.518 0.719,-6.812 l 0.214,-6.306 1.976,-2.288 c 2.731,-3.16 2.455,-3.353 9.616,6.721 4.696,6.608 6.606,8.994 7.2,9 11.867,0.116 11.408,0.142 11.408,-0.649 0,-0.529 -7.598,-11.505 -8.417,-12.159 -0.426,-0.34 -8.827,-12.05 -9.036,-12.594 -0.151,-0.393 5.726,-7.574 7.044,-8.606 0.14,-0.11 0.515,-0.575 0.832,-1.033 0.317,-0.458 1.424,-1.808 2.46,-3 6.041,-6.954 6.065,-6.769 -0.85,-6.762 -6.695,0.008 -6.209,-0.238 -11.326,5.741 -8.509,9.943 -10.495,12.032 -11.089,11.665 -0.28,-0.173 -0.418,-5.976 -0.418,-17.606 0,-15.237 -0.076,-17.424 -0.629,-17.976 -0.829,-0.83 -8.398,-0.887 -9.471,-0.072 m 215.2,0 c -1.033,0.784 -1.091,61.821 -0.059,62.677 0.869,0.722 8.738,0.747 9.456,0.03 0.343,-0.343 0.566,-2.52 0.703,-6.862 l 0.2,-6.361 1.4,-1.508 c 2.206,-2.377 3.218,-3.333 3.529,-3.333 0.158,0 3.224,4.121 6.814,9.157 l 6.528,9.157 2.464,0.197 c 2.2,0.176 4.467,0.164 8.565,-0.045 0.816,-0.041 1.3,-0.274 1.3,-0.626 0,-0.463 -4.327,-6.846 -5.78,-8.526 -1.186,-1.372 -1.42,-1.712 -1.42,-2.064 0,-0.211 -0.155,-0.443 -0.345,-0.517 -0.627,-0.243 -10.055,-13.675 -10.044,-14.31 0.007,-0.343 1.042,-1.717 2.3,-3.054 1.259,-1.337 2.649,-2.867 3.089,-3.401 0.44,-0.533 2.165,-2.589 3.833,-4.569 3.901,-4.629 5.607,-7.01 5.336,-7.449 -0.119,-0.192 -2.664,-0.35 -5.656,-0.35 h -5.44 l -1.837,1.923 c -1.01,1.058 -3.705,4.073 -5.99,6.7 -5.892,6.776 -8.454,9.419 -8.878,9.157 -0.215,-0.133 -0.368,-7.609 -0.368,-17.99 0,-17.151 -0.027,-17.776 -0.774,-18.176 -1.151,-0.616 -8.072,-0.505 -8.926,0.143 M 36.88,194.48 c -0.832,0.832 -0.646,9.106 0.22,9.763 0.523,0.397 2.6,0.535 8.213,0.544 5.652,0.01 7.55,0.137 7.665,0.513 0.084,0.275 0.329,11.811 0.544,25.637 0.27,17.343 0.528,25.273 0.834,25.579 0.729,0.729 9.983,0.626 10.453,-0.117 0.228,-0.36 0.381,-10.585 0.385,-25.619 0.005,-18.92 0.123,-25.137 0.486,-25.5 0.338,-0.338 2.678,-0.484 7.9,-0.493 9.5,-0.017 9.22,0.15 9.22,-5.523 0,-3.109 -0.141,-4.148 -0.629,-4.635 -0.826,-0.827 -44.47,-0.97 -45.291,-0.149 m 142.4,6.8 c -0.323,0.323 -0.48,2.142 -0.48,5.557 0,5.843 0.199,5.563 -3.953,5.563 -3.489,0 -3.647,0.194 -3.647,4.466 0,4.128 0.117,4.253 4.343,4.671 l 2.657,0.263 0.2,14 c 0.225,15.764 0.363,16.49 3.59,18.95 3.467,2.642 10.398,3.623 16.41,2.323 3.223,-0.697 3.2,-0.664 3.2,-4.617 0,-4.421 -0.035,-4.454 -4.376,-4.172 -7.486,0.485 -7.664,0.137 -7.53,-14.723 L 189.8,221.8 195,221.566 c 6.963,-0.314 6.6,-0.063 6.6,-4.56 0,-4.692 0.187,-4.556 -6.426,-4.694 l -5.374,-0.112 -0.22,-5.208 c -0.121,-2.865 -0.356,-5.43 -0.523,-5.7 -0.418,-0.676 -9.103,-0.686 -9.777,-0.012 m 48.32,10.769 c -2.318,0.694 -4.386,2.404 -6.106,5.051 -1.704,2.622 -2.294,2.291 -2.294,-1.286 0,-2.64 -0.099,-3.039 -0.855,-3.443 -0.941,-0.504 -8.593,-0.372 -9.445,0.162 -0.869,0.545 -0.713,43.193 0.161,43.917 0.741,0.616 9.018,0.803 9.605,0.218 0.184,-0.183 0.434,-5.583 0.557,-12 0.336,-17.564 2.695,-21.842 12.053,-21.864 1.032,-0.002 1.97,-0.155 2.084,-0.339 0.411,-0.665 0.328,-9.737 -0.093,-10.158 -0.598,-0.598 -4.012,-0.753 -5.667,-0.258 m 24,-0.201 c -7.98,1.51 -13.492,6.489 -13.578,12.265 -0.025,1.74 -0.235,1.638 4.694,2.276 4.406,0.571 5.18,0.266 6.416,-2.528 3.357,-7.589 14.068,-4.545 14.068,3.998 0,3.103 0.324,2.944 -6.497,3.193 -5.298,0.194 -11.199,1.006 -12.674,1.744 -0.346,0.174 -1.308,0.649 -2.139,1.056 -8.871,4.351 -8.936,17.717 -0.106,21.749 4.12,1.881 9.778,2.565 13.37,1.617 0.795,-0.21 1.92,-0.478 2.5,-0.596 0.579,-0.118 2.105,-0.921 3.391,-1.785 2.489,-1.674 2.955,-1.719 2.955,-0.29 0,2.501 8.223,3.878 9.851,1.65 1.098,-1.501 0.499,-31.508 -0.688,-34.449 -1.01,-2.504 -1.381,-3.203 -2.43,-4.579 -3.189,-4.183 -12.081,-6.656 -19.133,-5.321 m 45.2,0.025 c -13.622,2.234 -22.421,17.951 -17.203,30.727 0.984,2.408 2.985,6.2 3.271,6.2 0.183,0 0.332,0.222 0.332,0.493 0,1.852 7.367,6.646 11.861,7.72 10.929,2.61 26.526,-4.637 24.797,-11.524 -0.512,-2.039 -9.858,-4.545 -9.858,-2.643 0,0.732 -3.957,4.354 -4.757,4.354 -0.438,0 -0.907,0.18 -1.043,0.4 -0.306,0.495 -5.555,0.531 -6.505,0.044 -0.382,-0.195 -1.38,-0.69 -2.216,-1.1 -1.887,-0.923 -3.232,-2.404 -4.613,-5.079 -1.222,-2.368 -1.636,-11.656 -0.566,-12.725 0.275,-0.275 0.501,-0.779 0.503,-1.12 0.004,-1.076 3.015,-4.187 5.046,-5.213 4.312,-2.18 10.645,-1.128 13.175,2.189 2.873,3.767 12.176,0.18 10.069,-3.882 -3.356,-6.469 -13.128,-10.344 -22.293,-8.841 m -206.9,0.386 c -0.656,0.187 -0.7,1.596 -0.7,22.334 v 22.135 l 3.315,0.276 c 4.845,0.404 6.745,-0.061 7.185,-1.757 0.437,-1.688 0.217,-42.264 -0.232,-42.714 -0.364,-0.364 -8.439,-0.596 -9.568,-0.274 m 173.544,25.575 c 0.392,1.561 -0.187,6.099 -0.932,7.303 -4.436,7.169 -15.712,6.2 -15.712,-1.35 0,-4.859 3.481,-6.894 11.892,-6.955 l 4.493,-0.032 0.259,1.034 m -104.147,6.485 c -2.612,0.812 -4.897,3.929 -4.897,6.681 0,5.871 7.525,8.852 11.45,4.535 4.554,-5.009 -0.222,-13.184 -6.553,-11.216"
       stroke="none"
       fill="#09384d"
       fill-rule="evenodd"
       style="display:inline" />
    <path
       id="path2"
       d="m 244.65411,157.71947 c -7.2396,0.5688 -7.61754,2.26481 -1.247,5.577 2.63651,1.37043 5.21773,2.73464 5.73781,3.03115 0.87954,0.50195 0.22966,0.70442 -9.37154,2.9198 -21.32681,4.92215 -43.37414,10.3887 -55.34033,13.7212 -4.92222,1.37064 -12.10839,3.15196 -19.46995,4.82551 -3.34063,0.75921 -7.12935,1.62931 -8.41784,1.9333 -4.99577,1.17677 -17.41606,3.4405 -25.00398,4.5565 -7.90193,1.16266 -7.93237,1.17065 -5.68368,1.49137 4.17225,0.59522 23.37662,0.44499 30.78795,-0.24045 11.19617,-1.03567 16.07798,-1.57475 20.26396,-2.23907 7.27406,-1.15384 17.96209,-3.19967 23.4236,-4.48336 18.7366,-4.40581 62.81473,-13.1629 66.10005,-13.13261 1.32725,0.0122 4.43786,1.49002 9.02177,4.28744 3.73545,2.27926 3.88581,2.34738 6.2175,2.81441 6.64164,1.33237 10.59528,0.22036 17.83711,-5.01726 3.15017,-2.27805 6.37473,-4.59353 7.16548,-5.14555 15.47532,-10.80422 16.12106,-12.04714 6.57259,-12.64363 -3.93474,-0.24603 -32.39344,-1.39824 -44.18498,-1.78979 -18.28332,-0.60587 -21.77106,-0.67298 -24.40852,-0.46596"
       stroke="none"
       fill="#26baac"
       fill-rule="evenodd"
       style="stroke-width:1.12459" />
    <path
       id="path3"
       d="m 325.44546,169.74176 c -3.615,1.585 -5.753,5.786 -5.223,10.262 1.13,9.544 15.429,10.696 18.405,1.483 2.545,-7.881 -5.55,-15.094 -13.182,-11.745"
       stroke="none"
       fill="#fc5a06"
       fill-rule="evenodd" />
  </g>
</svg>
