<svg id="svg" version="1.1" xmlns="http://www.w3.org/2000/svg" xmlns:xlink="http://www.w3.org/1999/xlink" width="400" height="400" viewBox="0, 0, 400,400"><g id="svgg"><path id="path0" d="M91.518 194.038 C 86.706 196.477,86.580 203.722,91.310 206.008 C 99.247 209.842,105.046 198.003,97.193 193.996 C 95.294 193.027,93.486 193.041,91.518 194.038 M109.900 193.757 C 108.815 194.581,108.815 256.267,109.900 256.713 C 111.151 257.226,119.113 257.047,119.667 256.493 C 120.011 256.149,120.240 253.975,120.386 249.681 L 120.600 243.375 122.576 241.087 C 125.307 237.927,125.031 237.734,132.192 247.808 C 136.888 254.416,138.798 256.802,139.392 256.808 C 151.259 256.924,150.800 256.950,150.800 256.159 C 150.800 255.630,143.202 244.654,142.383 244.000 C 141.957 243.660,133.556 231.950,133.347 231.406 C 133.196 231.013,139.073 223.832,140.391 222.800 C 140.531 222.690,140.906 222.225,141.223 221.767 C 141.540 221.309,142.647 219.959,143.683 218.767 C 149.724 211.813,149.748 211.998,142.833 212.005 C 136.138 212.013,136.624 211.767,131.507 217.746 C 122.998 227.689,121.012 229.778,120.418 229.411 C 120.138 229.238,120.000 223.435,120.000 211.805 C 120.000 196.568,119.924 194.381,119.371 193.829 C 118.542 192.999,110.973 192.942,109.900 193.757 M325.100 193.757 C 324.067 194.541,324.009 255.578,325.041 256.434 C 325.910 257.156,333.779 257.181,334.497 256.464 C 334.840 256.121,335.063 253.944,335.200 249.602 L 335.400 243.241 336.800 241.733 C 339.006 239.356,340.018 238.400,340.329 238.400 C 340.487 238.400,343.553 242.521,347.143 247.557 L 353.671 256.714 356.135 256.911 C 358.335 257.087,360.602 257.075,364.700 256.866 C 365.516 256.825,366.000 256.592,366.000 256.240 C 366.000 255.777,361.673 249.394,360.220 247.714 C 359.034 246.342,358.800 246.002,358.800 245.650 C 358.800 245.439,358.645 245.207,358.455 245.133 C 357.828 244.890,348.400 231.458,348.411 230.823 C 348.418 230.480,349.453 229.106,350.711 227.769 C 351.970 226.432,353.360 224.902,353.800 224.368 C 354.240 223.835,355.965 221.779,357.633 219.799 C 361.534 215.170,363.240 212.789,362.969 212.350 C 362.850 212.158,360.305 212.000,357.313 212.000 L 351.873 212.000 350.036 213.923 C 349.026 214.981,346.331 217.996,344.046 220.623 C 338.154 227.399,335.592 230.042,335.168 229.780 C 334.953 229.647,334.800 222.171,334.800 211.790 C 334.800 194.639,334.773 194.014,334.026 193.614 C 332.875 192.998,325.954 193.109,325.100 193.757 M36.880 194.480 C 36.048 195.312,36.234 203.586,37.100 204.243 C 37.623 204.640,39.700 204.778,45.313 204.787 C 50.965 204.797,52.863 204.924,52.978 205.300 C 53.062 205.575,53.307 217.111,53.522 230.937 C 53.792 248.280,54.050 256.210,54.356 256.516 C 55.085 257.245,64.339 257.142,64.809 256.399 C 65.037 256.039,65.190 245.814,65.194 230.780 C 65.199 211.860,65.317 205.643,65.680 205.280 C 66.018 204.942,68.358 204.796,73.580 204.787 C 83.080 204.770,82.800 204.937,82.800 199.264 C 82.800 196.155,82.659 195.116,82.171 194.629 C 81.345 193.802,37.701 193.659,36.880 194.480 M179.280 201.280 C 178.957 201.603,178.800 203.422,178.800 206.837 C 178.800 212.680,178.999 212.400,174.847 212.400 C 171.358 212.400,171.200 212.594,171.200 216.866 C 171.200 220.994,171.317 221.119,175.543 221.537 L 178.200 221.800 178.400 235.800 C 178.625 251.564,178.763 252.290,181.990 254.750 C 185.457 257.392,192.388 258.373,198.400 257.073 C 201.623 256.376,201.600 256.409,201.600 252.456 C 201.600 248.035,201.565 248.002,197.224 248.284 C 189.738 248.769,189.560 248.421,189.694 233.561 L 189.800 221.800 195.000 221.566 C 201.963 221.252,201.600 221.503,201.600 217.006 C 201.600 212.314,201.787 212.450,195.174 212.312 L 189.800 212.200 189.580 206.992 C 189.459 204.127,189.224 201.562,189.057 201.292 C 188.639 200.616,179.954 200.606,179.280 201.280 M227.600 212.049 C 225.282 212.743,223.214 214.453,221.494 217.100 C 219.790 219.722,219.200 219.391,219.200 215.814 C 219.200 213.174,219.101 212.775,218.345 212.371 C 217.404 211.867,209.752 211.999,208.900 212.533 C 208.031 213.078,208.187 255.726,209.061 256.450 C 209.802 257.066,218.079 257.253,218.666 256.668 C 218.850 256.485,219.100 251.085,219.223 244.668 C 219.559 227.104,221.918 222.826,231.276 222.804 C 232.308 222.802,233.246 222.649,233.360 222.465 C 233.771 221.800,233.688 212.728,233.267 212.307 C 232.669 211.709,229.255 211.554,227.600 212.049 M251.600 211.848 C 243.620 213.358,238.108 218.337,238.022 224.113 C 237.997 225.853,237.787 225.751,242.716 226.389 C 247.122 226.960,247.896 226.655,249.132 223.861 C 252.489 216.272,263.200 219.316,263.200 227.859 C 263.200 230.962,263.524 230.803,256.703 231.052 C 251.405 231.246,245.504 232.058,244.029 232.796 C 243.683 232.970,242.721 233.445,241.890 233.852 C 233.019 238.203,232.954 251.569,241.784 255.601 C 245.904 257.482,251.562 258.166,255.154 257.218 C 255.949 257.008,257.074 256.740,257.654 256.622 C 258.233 256.504,259.759 255.701,261.045 254.837 C 263.534 253.163,264.000 253.118,264.000 254.547 C 264.000 257.048,272.223 258.425,273.851 256.197 C 274.949 254.696,274.350 224.689,273.163 221.748 C 272.153 219.244,271.782 218.545,270.733 217.169 C 267.544 212.986,258.652 210.513,251.600 211.848 M296.800 211.873 C 283.178 214.107,274.379 229.824,279.597 242.600 C 280.581 245.008,282.582 248.800,282.868 248.800 C 283.051 248.800,283.200 249.022,283.200 249.293 C 283.200 251.145,290.567 255.939,295.061 257.013 C 305.990 259.623,321.587 252.376,319.858 245.489 C 319.346 243.450,310.000 240.944,310.000 242.846 C 310.000 243.578,306.043 247.200,305.243 247.200 C 304.805 247.200,304.336 247.380,304.200 247.600 C 303.894 248.095,298.645 248.131,297.695 247.644 C 297.313 247.449,296.315 246.954,295.479 246.544 C 293.592 245.621,292.247 244.140,290.866 241.465 C 289.644 239.097,289.230 229.809,290.300 228.740 C 290.575 228.465,290.801 227.961,290.803 227.620 C 290.807 226.544,293.818 223.433,295.849 222.407 C 300.161 220.227,306.494 221.279,309.024 224.596 C 311.897 228.363,321.200 224.776,319.093 220.714 C 315.737 214.245,305.965 210.370,296.800 211.873 M89.900 212.259 C 89.244 212.446,89.200 213.855,89.200 234.593 L 89.200 256.728 92.515 257.004 C 97.360 257.408,99.260 256.943,99.700 255.247 C 100.137 253.559,99.917 212.983,99.468 212.533 C 99.104 212.169,91.029 211.937,89.900 212.259 M263.444 237.834 C 263.836 239.395,263.257 243.933,262.512 245.137 C 258.076 252.306,246.800 251.337,246.800 243.787 C 246.800 238.928,250.281 236.893,258.692 236.832 L 263.185 236.800 263.444 237.834 M159.297 244.319 C 156.685 245.131,154.400 248.248,154.400 251.000 C 154.400 256.871,161.925 259.852,165.850 255.535 C 170.404 250.526,165.628 242.351,159.297 244.319 " stroke="none" fill="#09384d" fill-rule="evenodd"></path><path id="path1" d="M0.000 200.000 L 0.000 400.000 200.000 400.000 L 400.000 400.000 400.000 200.000 L 400.000 0.000 200.000 0.000 L 0.000 0.000 0.000 200.000 M283.800 140.020 C 285.780 140.244,289.380 140.594,291.800 140.799 C 307.780 142.151,308.139 142.254,309.591 145.920 C 310.016 146.994,310.019 147.441,309.603 148.320 C 309.323 148.914,308.918 149.850,308.704 150.400 C 308.491 150.950,308.090 151.940,307.814 152.600 C 307.538 153.260,307.088 154.340,306.814 155.000 C 306.540 155.660,306.090 156.740,305.814 157.400 C 305.538 158.060,305.088 159.140,304.814 159.800 C 304.540 160.460,304.090 161.540,303.814 162.200 C 303.538 162.860,303.088 163.940,302.814 164.600 C 302.540 165.260,302.090 166.340,301.814 167.000 C 301.538 167.660,301.088 168.740,300.814 169.400 C 297.484 177.422,297.166 178.049,295.800 179.294 C 292.277 182.505,289.244 180.693,285.174 172.947 C 283.618 169.986,282.562 168.927,281.727 169.489 C 281.327 169.758,280.423 170.269,279.718 170.626 C 279.014 170.982,278.226 171.527,277.969 171.837 C 277.712 172.147,277.316 172.400,277.089 172.400 C 276.861 172.400,276.086 172.850,275.364 173.400 C 274.643 173.950,273.923 174.400,273.764 174.400 C 273.606 174.400,272.886 174.850,272.164 175.400 C 271.443 175.950,270.661 176.400,270.427 176.400 C 270.192 176.400,270.000 176.580,270.000 176.800 C 270.000 177.020,269.841 177.200,269.646 177.200 C 268.926 177.200,254.112 187.498,249.767 191.018 C 248.088 192.379,244.443 194.739,239.800 197.471 C 237.874 198.604,233.849 200.400,233.234 200.400 C 232.989 200.400,232.477 200.558,232.095 200.751 C 226.684 203.484,210.400 204.134,210.400 201.616 C 210.400 201.415,212.155 200.393,214.300 199.345 C 219.124 196.987,226.606 192.350,229.056 190.200 C 229.306 189.980,230.013 189.440,230.627 189.000 C 231.240 188.560,232.414 187.660,233.235 187.000 C 234.056 186.340,235.271 185.385,235.934 184.879 C 236.598 184.372,237.739 183.421,238.470 182.764 C 239.202 182.108,240.491 180.992,241.335 180.285 C 242.179 179.578,243.484 178.427,244.235 177.726 C 244.987 177.026,246.453 175.766,247.494 174.926 C 249.154 173.588,251.147 171.882,252.556 170.594 C 252.800 170.371,253.810 169.566,254.800 168.805 C 255.790 168.043,256.690 167.313,256.800 167.181 C 257.129 166.787,261.775 163.122,266.600 159.449 C 267.920 158.444,269.180 157.477,269.400 157.299 C 269.620 157.121,270.475 156.465,271.300 155.840 C 273.075 154.497,273.100 154.340,271.800 152.636 C 271.250 151.914,270.800 151.131,270.800 150.896 C 270.800 150.660,270.665 150.407,270.500 150.333 C 270.017 150.119,267.819 146.719,267.221 145.262 C 266.586 143.717,267.225 142.139,269.146 140.502 C 270.365 139.463,276.947 139.247,283.800 140.020 M328.520 162.244 C 334.916 165.462,336.527 174.439,331.531 179.020 C 329.558 180.828,326.695 182.003,324.281 181.994 C 318.514 181.973,313.869 177.283,313.872 171.483 C 313.873 170.209,314.082 168.958,314.337 168.703 C 314.592 168.448,314.800 167.941,314.800 167.576 C 314.800 163.665,324.134 160.038,328.520 162.244 M97.933 193.204 C 98.007 193.422,98.240 193.600,98.452 193.600 C 99.827 193.600,102.000 197.483,102.000 199.938 C 102.000 202.425,99.818 206.400,98.452 206.400 C 98.240 206.400,97.992 206.623,97.902 206.895 C 97.136 209.192,87.600 206.270,87.600 203.739 C 87.600 203.442,87.420 203.200,87.200 203.200 C 86.553 203.200,86.727 198.269,87.424 196.872 C 88.159 195.399,90.929 192.925,92.147 192.653 C 93.485 192.355,97.785 192.764,97.933 193.204 M120.530 193.404 C 120.861 193.964,121.059 199.174,121.200 210.961 L 121.400 227.721 122.291 226.761 C 125.239 223.582,126.101 222.608,127.474 220.899 C 128.313 219.855,129.630 218.360,130.400 217.577 C 131.170 216.795,132.250 215.570,132.800 214.855 C 134.714 212.368,135.028 212.083,136.558 211.443 C 138.561 210.607,147.427 210.542,148.500 211.357 C 149.208 211.894,149.474 213.821,148.875 214.067 C 148.696 214.140,147.761 215.280,146.796 216.600 C 145.831 217.920,144.402 219.642,143.621 220.427 C 142.839 221.212,141.570 222.644,140.800 223.608 C 138.483 226.508,137.069 228.127,135.700 229.444 C 133.993 231.086,134.002 231.269,135.900 233.385 C 136.175 233.692,136.400 234.054,136.400 234.189 C 136.400 234.324,136.850 234.920,137.400 235.513 C 137.950 236.107,138.400 236.804,138.400 237.063 C 138.400 237.321,138.546 237.593,138.725 237.667 C 138.904 237.740,139.836 238.880,140.797 240.200 C 141.758 241.520,142.660 242.690,142.802 242.800 C 142.944 242.910,143.401 243.585,143.816 244.300 C 144.232 245.015,144.714 245.600,144.886 245.600 C 145.059 245.600,145.200 245.788,145.200 246.017 C 145.200 246.409,145.513 246.862,146.700 248.185 C 146.975 248.492,147.200 248.936,147.200 249.171 C 147.200 249.407,147.358 249.600,147.551 249.600 C 147.894 249.600,152.400 256.046,152.400 256.537 C 152.400 258.289,141.348 259.229,138.721 257.700 C 137.735 257.127,129.600 246.491,129.600 245.776 C 129.600 245.660,129.150 245.080,128.600 244.487 C 128.050 243.893,127.600 243.258,127.600 243.076 C 127.600 242.893,127.334 242.477,127.009 242.152 C 126.684 241.827,126.138 241.165,125.796 240.680 C 125.175 239.801,125.170 239.803,123.187 241.942 L 121.200 244.085 121.200 250.434 L 121.200 256.784 119.616 257.592 C 116.485 259.189,109.515 258.484,108.432 256.460 C 107.848 255.369,107.831 196.424,108.414 194.325 C 108.910 192.538,109.242 192.455,115.530 192.544 C 119.591 192.601,120.109 192.690,120.530 193.404 M335.371 193.400 C 335.886 194.083,335.976 196.644,335.987 210.900 C 335.994 220.085,336.097 227.600,336.215 227.600 C 336.525 227.600,339.789 224.195,341.521 222.065 C 342.334 221.064,343.450 219.774,344.000 219.198 C 345.679 217.438,349.380 213.137,349.722 212.548 C 351.087 210.194,364.400 210.094,364.400 212.437 C 364.400 212.851,362.629 215.437,361.823 216.200 C 361.590 216.420,360.865 217.320,360.210 218.200 C 358.938 219.912,357.278 221.824,355.500 223.624 C 354.895 224.237,354.396 224.887,354.392 225.069 C 354.387 225.251,353.217 226.624,351.792 228.119 C 349.322 230.710,348.753 231.600,349.567 231.600 C 349.769 231.600,350.345 232.275,350.846 233.100 C 351.348 233.925,351.858 234.690,351.981 234.800 C 352.443 235.214,354.400 237.957,354.400 238.191 C 354.400 238.325,354.850 238.920,355.400 239.513 C 355.950 240.107,356.400 240.804,356.400 241.063 C 356.400 241.321,356.546 241.593,356.725 241.667 C 356.904 241.740,357.836 242.880,358.797 244.200 C 359.758 245.520,360.660 246.690,360.802 246.800 C 360.944 246.910,361.401 247.585,361.816 248.300 C 362.232 249.015,362.714 249.600,362.886 249.600 C 363.059 249.600,363.200 249.788,363.200 250.017 C 363.200 250.409,363.513 250.862,364.700 252.185 C 364.975 252.492,365.200 252.936,365.200 253.171 C 365.200 253.407,365.367 253.600,365.571 253.600 C 365.985 253.600,367.200 255.850,367.200 256.618 C 367.200 258.427,356.399 259.206,353.778 257.586 C 352.507 256.801,340.800 240.957,340.800 240.023 C 340.800 239.201,340.112 239.622,338.266 241.571 L 336.400 243.542 336.400 249.352 C 336.400 255.644,336.122 256.824,334.456 257.609 C 332.554 258.505,328.036 258.566,325.800 257.727 L 323.800 256.976 323.584 235.451 C 323.465 223.612,323.465 209.219,323.584 203.466 L 323.800 193.006 325.000 192.734 C 327.784 192.102,334.728 192.548,335.371 193.400 M82.253 193.509 C 84.912 195.663,84.593 204.138,81.814 205.195 C 81.283 205.396,77.599 205.591,73.625 205.628 L 66.400 205.694 66.394 230.947 C 66.391 244.836,66.256 256.392,66.094 256.628 C 64.938 258.309,58.677 258.896,55.000 257.668 L 53.000 257.000 52.793 231.400 C 52.679 217.320,52.544 205.755,52.493 205.700 C 52.442 205.645,49.273 205.600,45.450 205.600 C 35.060 205.600,35.152 205.658,35.250 199.200 C 35.310 195.192,35.610 194.072,36.800 193.424 C 38.506 192.493,81.098 192.573,82.253 193.509 M189.600 200.400 C 190.318 201.118,190.400 201.733,190.400 206.400 L 190.400 211.600 195.920 211.600 C 202.700 211.600,202.400 211.357,202.400 216.857 C 202.400 222.464,202.479 222.400,195.511 222.400 L 190.400 222.400 190.409 233.700 C 190.419 246.430,190.370 246.212,193.448 247.177 C 195.005 247.665,196.863 247.607,199.256 246.994 C 201.715 246.364,202.400 247.555,202.400 252.460 L 202.400 256.828 200.567 257.614 C 195.312 259.867,184.536 258.424,181.041 255.000 C 177.460 251.491,177.600 252.251,177.600 236.368 L 177.600 222.400 174.862 222.400 C 170.924 222.400,170.600 221.955,170.600 216.543 C 170.600 211.602,170.589 211.615,174.700 211.606 L 177.600 211.600 177.600 206.429 C 177.600 199.651,177.649 199.600,184.254 199.600 C 188.267 199.600,188.894 199.694,189.600 200.400 M99.099 211.410 C 101.014 212.365,101.200 214.485,101.200 235.327 C 101.200 255.827,101.110 256.713,98.914 257.760 C 95.572 259.354,88.460 258.169,87.857 255.918 C 87.334 253.965,87.600 213.851,88.143 212.872 C 89.266 210.849,96.137 209.932,99.099 211.410 M219.000 211.559 C 220.062 212.180,220.227 212.532,220.433 214.630 C 220.561 215.933,220.696 216.791,220.733 216.535 C 220.850 215.722,225.274 211.600,226.029 211.600 C 226.427 211.600,226.864 211.420,227.000 211.200 C 227.403 210.548,232.878 210.733,233.800 211.430 C 234.624 212.053,235.072 222.262,234.308 223.025 C 234.037 223.296,232.084 223.718,228.200 224.343 C 224.653 224.913,221.200 228.381,221.200 231.373 C 221.200 231.912,221.020 232.464,220.800 232.600 C 220.548 232.756,220.398 237.178,220.394 244.524 C 220.391 250.946,220.256 256.400,220.094 256.644 C 218.853 258.520,212.144 259.102,209.181 257.590 L 207.593 256.780 207.697 234.290 L 207.800 211.800 208.800 211.666 C 209.350 211.593,209.971 211.368,210.180 211.166 C 210.888 210.484,217.677 210.787,219.000 211.559 M263.000 211.200 C 263.136 211.420,263.607 211.600,264.047 211.600 C 266.562 211.600,271.441 215.767,273.176 219.397 C 274.848 222.895,274.900 223.487,275.066 240.916 L 275.218 256.831 273.509 257.607 C 269.979 259.209,263.972 258.335,263.421 256.139 C 263.162 255.109,262.352 254.921,261.529 255.700 C 260.938 256.259,259.753 256.864,257.451 257.782 C 255.215 258.674,246.202 258.649,244.114 257.745 C 243.281 257.384,242.150 256.893,241.600 256.653 C 240.344 256.105,237.900 254.362,237.491 253.722 C 237.321 253.457,236.944 253.001,236.653 252.710 C 234.757 250.814,233.627 241.413,235.115 239.925 C 235.382 239.658,235.600 239.136,235.600 238.765 C 235.600 237.691,240.578 232.816,241.705 232.787 C 241.977 232.780,242.549 232.510,242.976 232.187 C 243.404 231.864,244.158 231.600,244.653 231.600 C 245.148 231.600,245.664 231.420,245.800 231.200 C 245.936 230.980,246.748 230.800,247.604 230.800 C 248.460 230.800,250.024 230.630,251.080 230.422 C 252.136 230.214,255.121 229.926,257.714 229.782 C 261.828 229.553,262.405 229.435,262.247 228.860 C 262.147 228.497,261.952 227.195,261.812 225.967 C 261.548 223.633,259.932 221.200,258.646 221.200 C 258.317 221.200,257.936 221.020,257.800 220.800 C 256.714 219.043,251.479 221.326,250.017 224.194 C 248.365 227.434,248.441 227.398,243.470 227.272 C 238.064 227.134,236.800 226.513,236.800 223.996 C 236.800 223.144,236.980 222.336,237.200 222.200 C 237.420 222.064,237.600 221.535,237.600 221.025 C 237.600 220.515,237.870 219.874,238.200 219.600 C 238.530 219.326,238.800 218.870,238.800 218.586 C 238.800 216.825,246.120 211.600,248.587 211.600 C 249.118 211.600,249.664 211.420,249.800 211.200 C 249.948 210.961,252.596 210.800,256.400 210.800 C 260.204 210.800,262.852 210.961,263.000 211.200 M307.000 211.200 C 307.136 211.420,307.794 211.600,308.462 211.600 C 309.130 211.600,310.154 211.848,310.738 212.151 C 311.322 212.454,312.295 212.935,312.899 213.218 C 314.236 213.846,317.837 217.246,319.344 219.302 C 321.665 222.471,319.806 226.320,315.924 226.383 C 315.332 226.392,314.736 226.580,314.600 226.800 C 313.817 228.067,310.093 227.222,308.338 225.380 C 305.941 222.865,304.829 222.400,301.214 222.400 C 292.538 222.400,288.014 230.838,291.454 240.600 C 291.937 241.972,295.102 245.600,295.815 245.600 C 296.083 245.600,296.526 245.870,296.800 246.200 C 298.754 248.555,307.655 245.962,308.918 242.670 C 309.316 241.633,311.478 240.707,312.377 241.188 C 312.801 241.415,313.755 241.600,314.497 241.600 C 315.240 241.600,316.196 241.864,316.624 242.187 C 317.051 242.510,317.701 242.780,318.069 242.787 C 318.940 242.804,321.198 245.067,321.206 245.931 C 321.216 246.975,319.131 250.777,317.778 252.184 C 313.515 256.615,308.747 258.374,301.000 258.374 C 295.322 258.374,295.192 258.350,290.100 256.416 C 289.385 256.144,288.800 255.759,288.800 255.561 C 288.800 255.362,288.530 255.200,288.200 255.200 C 287.870 255.200,287.600 255.020,287.600 254.800 C 287.600 254.580,287.371 254.400,287.091 254.400 C 285.681 254.400,279.600 246.831,279.600 245.076 C 279.600 244.778,279.484 244.417,279.341 244.275 C 277.635 242.569,276.919 231.464,278.252 227.400 C 279.040 225.000,280.881 221.053,281.300 220.867 C 281.465 220.793,281.600 220.509,281.600 220.236 C 281.600 218.004,289.525 212.330,293.504 211.714 C 294.221 211.603,294.906 211.351,295.027 211.156 C 295.335 210.658,306.691 210.700,307.000 211.200 M253.300 238.288 C 252.145 238.373,251.200 238.612,251.200 238.821 C 251.200 239.029,250.868 239.200,250.462 239.200 C 248.419 239.200,246.877 242.955,247.937 245.351 C 251.216 252.763,263.532 247.916,262.728 239.531 L 262.600 238.200 259.000 238.167 C 257.020 238.149,254.455 238.203,253.300 238.288 M163.241 243.314 C 164.762 243.844,167.190 245.572,167.196 246.129 C 167.198 246.309,167.470 246.727,167.800 247.057 C 168.695 247.952,168.626 253.280,167.700 254.707 C 163.343 261.425,153.600 258.889,153.600 251.037 C 153.600 247.348,156.195 243.600,158.750 243.600 C 159.191 243.600,159.664 243.420,159.800 243.200 C 160.133 242.660,161.495 242.706,163.241 243.314 " stroke="none" fill="#fbfbfb" fill-rule="evenodd"></path><path id="path2" d="M270.925 140.457 C 267.310 141.457,267.182 144.131,270.502 149.250 C 271.876 151.368,273.222 153.477,273.494 153.936 C 273.954 154.713,273.635 155.041,268.894 158.666 C 258.363 166.720,247.490 175.641,241.602 181.058 C 239.180 183.286,235.636 186.193,232.000 188.933 C 230.350 190.176,228.479 191.600,227.843 192.097 C 225.377 194.021,219.222 197.763,215.452 199.629 C 211.526 201.573,211.511 201.586,212.652 202.058 C 214.769 202.934,224.408 202.419,228.105 201.233 C 233.690 199.441,236.122 198.522,238.200 197.416 C 241.811 195.495,247.104 192.121,249.800 190.022 C 259.049 182.818,280.866 168.400,282.517 168.400 C 283.184 168.400,284.800 170.680,287.204 175.015 C 289.163 178.547,289.241 178.652,290.429 179.353 C 293.813 181.353,295.758 179.546,299.204 171.200 C 300.703 167.570,302.238 163.880,302.615 163.000 C 309.993 145.776,310.272 143.811,305.455 143.011 C 303.470 142.681,289.136 141.281,283.200 140.836 C 273.996 140.148,272.242 140.093,270.925 140.457 " stroke="none" fill="#26baac" fill-rule="evenodd"></path><path id="path3" d="M320.157 163.011 C 316.542 164.596,314.404 168.797,314.934 173.273 C 316.064 182.817,330.363 183.969,333.339 174.756 C 335.884 166.875,327.789 159.662,320.157 163.011 " stroke="none" fill="#fc5a06" fill-rule="evenodd"></path><path id="path4" d="M268.909 141.411 C 267.284 143.036,267.188 145.647,268.691 147.325 C 269.122 147.806,270.349 149.622,271.417 151.361 L 273.359 154.522 271.979 155.693 C 271.221 156.338,267.900 158.956,264.600 161.513 C 258.472 166.260,246.829 175.902,241.800 180.395 C 240.260 181.771,237.040 184.450,234.643 186.348 C 229.547 190.386,228.378 191.375,229.200 190.953 C 230.587 190.241,238.376 184.026,241.602 181.058 C 247.490 175.641,258.363 166.720,268.894 158.666 C 273.635 155.041,273.954 154.713,273.494 153.936 C 273.222 153.477,271.876 151.368,270.502 149.250 C 267.181 144.130,267.308 141.488,270.925 140.441 C 271.985 140.134,272.041 140.066,271.260 140.036 C 270.685 140.014,269.772 140.548,268.909 141.411 M273.633 140.146 C 273.725 140.226,276.410 140.385,279.600 140.498 C 283.155 140.625,284.471 140.585,283.000 140.396 C 280.530 140.078,273.336 139.886,273.633 140.146 M286.707 141.090 C 287.426 141.179,288.506 141.177,289.107 141.086 C 289.708 140.995,289.120 140.922,287.800 140.924 C 286.480 140.926,285.988 141.001,286.707 141.090 M292.400 141.617 C 293.610 141.784,295.320 141.915,296.200 141.907 C 297.745 141.894,297.731 141.882,295.800 141.582 C 294.700 141.410,292.990 141.280,292.000 141.291 L 290.200 141.313 292.400 141.617 M302.000 142.548 C 308.445 143.333,309.958 145.092,308.237 149.800 C 308.052 150.306,308.170 150.233,308.558 149.600 C 311.059 145.523,308.331 142.643,301.600 142.256 L 297.800 142.037 302.000 142.548 M306.853 152.853 C 306.380 153.993,306.058 154.992,306.139 155.072 C 306.220 155.153,306.673 154.286,307.147 153.147 C 307.620 152.007,307.942 151.008,307.861 150.928 C 307.780 150.847,307.327 151.714,306.853 152.853 M304.853 157.653 C 304.380 158.793,304.058 159.792,304.139 159.872 C 304.220 159.953,304.673 159.086,305.147 157.947 C 305.620 156.807,305.942 155.808,305.861 155.728 C 305.780 155.647,305.327 156.514,304.853 157.653 M302.898 162.303 C 301.415 165.648,299.997 169.330,300.139 169.472 C 300.214 169.548,301.114 167.597,302.137 165.138 C 303.968 160.740,304.544 158.593,302.898 162.303 M275.600 172.313 C 267.464 177.442,261.694 181.252,258.000 183.935 C 252.867 187.663,247.600 191.698,247.600 191.902 C 247.600 192.010,247.825 191.922,248.100 191.708 C 250.349 189.953,259.883 183.001,261.800 181.718 C 273.841 173.656,281.931 168.688,282.600 168.945 C 283.195 169.173,285.962 173.322,287.407 176.153 C 288.295 177.891,290.220 180.000,290.920 180.000 C 291.172 180.000,290.933 179.696,290.389 179.324 C 289.277 178.564,289.131 178.365,287.264 175.065 C 282.770 167.120,283.547 167.303,275.600 172.313 M298.151 173.834 C 296.875 177.013,296.323 177.903,295.040 178.849 C 294.182 179.482,293.743 180.000,294.065 180.000 C 295.429 180.000,300.713 170.980,299.853 170.120 C 299.770 170.037,299.005 171.708,298.151 173.834 M224.200 194.061 C 222.000 195.563,218.091 197.856,215.513 199.157 C 210.544 201.666,210.263 202.117,213.400 202.549 C 214.280 202.670,214.640 202.664,214.200 202.536 C 211.277 201.686,211.277 201.688,215.076 199.839 C 219.674 197.601,228.827 191.839,228.371 191.470 C 228.277 191.394,226.400 192.560,224.200 194.061 M243.600 194.224 C 239.508 196.839,236.358 198.510,234.200 199.211 C 233.320 199.497,232.808 199.801,233.063 199.886 C 234.070 200.225,246.205 193.687,247.021 192.365 C 247.351 191.832,247.309 191.855,243.600 194.224 M323.784 212.600 C 323.784 222.720,323.836 226.803,323.900 221.673 C 323.963 216.542,323.963 208.262,323.900 203.273 C 323.836 198.283,323.784 202.480,323.784 212.600 M35.750 199.400 C 35.751 201.820,35.816 202.758,35.896 201.485 C 35.976 200.212,35.975 198.232,35.894 197.085 C 35.814 195.938,35.749 196.980,35.750 199.400 M83.309 197.600 C 83.309 198.590,83.387 198.995,83.482 198.500 C 83.578 198.005,83.578 197.195,83.482 196.700 C 83.387 196.205,83.309 196.610,83.309 197.600 M101.293 200.000 C 101.293 200.770,101.375 201.085,101.476 200.700 C 101.576 200.315,101.576 199.685,101.476 199.300 C 101.375 198.915,101.293 199.230,101.293 200.000 M188.383 200.509 C 188.923 200.783,189.490 201.455,189.643 202.003 C 189.883 202.867,189.926 202.889,189.960 202.162 C 190.004 201.237,188.858 199.997,187.969 200.006 C 187.656 200.009,187.842 200.236,188.383 200.509 M231.098 200.235 C 230.969 200.364,230.174 200.646,229.332 200.861 C 228.489 201.076,227.260 201.415,226.600 201.615 L 225.400 201.978 226.600 201.822 C 229.461 201.449,233.628 200.044,231.967 200.012 C 231.618 200.005,231.228 200.106,231.098 200.235 M177.998 206.681 C 177.889 209.586,177.941 211.821,178.113 211.649 C 178.285 211.476,178.374 209.099,178.311 206.367 L 178.197 201.400 177.998 206.681 M220.400 202.416 C 219.773 202.626,220.370 202.666,222.000 202.523 C 223.430 202.397,224.675 202.228,224.767 202.147 C 225.095 201.858,221.380 202.086,220.400 202.416 M229.905 211.083 C 230.402 211.179,231.122 211.175,231.505 211.075 C 231.887 210.975,231.480 210.896,230.600 210.901 C 229.720 210.905,229.407 210.987,229.905 211.083 M254.300 211.095 C 255.455 211.176,257.345 211.176,258.500 211.095 C 259.655 211.014,258.710 210.948,256.400 210.948 C 254.090 210.948,253.145 211.014,254.300 211.095 M299.300 211.094 C 300.345 211.176,302.055 211.176,303.100 211.094 C 304.145 211.012,303.290 210.944,301.200 210.944 C 299.110 210.944,298.255 211.012,299.300 211.094 M174.105 211.887 C 174.714 211.979,175.614 211.977,176.105 211.882 C 176.597 211.787,176.100 211.711,175.000 211.714 C 173.900 211.717,173.497 211.795,174.105 211.887 M192.500 211.891 C 193.325 211.978,194.675 211.978,195.500 211.891 C 196.325 211.805,195.650 211.734,194.000 211.734 C 192.350 211.734,191.675 211.805,192.500 211.891 M108.578 224.600 C 108.579 231.640,108.633 234.464,108.699 230.875 C 108.766 227.286,108.766 221.526,108.699 218.075 C 108.633 214.624,108.578 217.560,108.578 224.600 M234.155 217.400 C 234.156 220.260,234.220 221.378,234.297 219.883 C 234.374 218.389,234.374 216.049,234.296 214.683 C 234.218 213.318,234.155 214.540,234.155 217.400 M100.120 214.800 C 100.120 216.010,100.195 216.505,100.287 215.900 C 100.378 215.295,100.378 214.305,100.287 213.700 C 100.195 213.095,100.120 213.590,100.120 214.800 M88.537 216.200 C 88.539 217.960,88.609 218.630,88.693 217.689 C 88.778 216.749,88.777 215.309,88.691 214.489 C 88.605 213.670,88.536 214.440,88.537 216.200 M120.560 219.400 C 120.561 222.700,120.622 223.997,120.698 222.282 C 120.773 220.567,120.772 217.867,120.697 216.282 C 120.621 214.697,120.559 216.100,120.560 219.400 M100.561 224.400 C 100.561 227.810,100.622 229.205,100.697 227.500 C 100.772 225.795,100.772 223.005,100.697 221.300 C 100.622 219.595,100.561 220.990,100.561 224.400 M52.983 235.000 C 52.983 244.020,53.035 247.767,53.099 243.327 C 53.164 238.887,53.164 231.507,53.100 226.927 C 53.035 222.347,52.983 225.980,52.983 235.000 M88.584 237.200 C 88.584 246.990,88.636 250.995,88.700 246.100 C 88.763 241.205,88.763 233.195,88.700 228.300 C 88.636 223.405,88.584 227.410,88.584 237.200 M335.350 223.800 C 335.351 226.220,335.416 227.158,335.496 225.885 C 335.576 224.612,335.575 222.632,335.494 221.485 C 335.414 220.338,335.349 221.380,335.350 223.800 M300.100 221.887 C 300.705 221.978,301.695 221.978,302.300 221.887 C 302.905 221.795,302.410 221.720,301.200 221.720 C 299.990 221.720,299.495 221.795,300.100 221.887 M123.775 225.700 L 122.600 227.000 123.900 225.825 C 125.112 224.730,125.384 224.400,125.075 224.400 C 125.006 224.400,124.421 224.985,123.775 225.700 M242.700 227.082 C 243.195 227.178,244.005 227.178,244.500 227.082 C 244.995 226.987,244.590 226.909,243.600 226.909 C 242.610 226.909,242.205 226.987,242.700 227.082 M120.692 227.842 C 120.215 228.318,120.359 228.800,120.976 228.800 C 121.293 228.800,121.681 228.592,121.838 228.338 C 122.007 228.065,121.949 227.984,121.696 228.141 C 121.461 228.286,121.204 228.213,121.126 227.977 C 121.047 227.742,120.852 227.681,120.692 227.842 M257.200 230.417 C 256.335 230.609,256.946 230.646,258.800 230.512 C 260.450 230.393,261.875 230.229,261.967 230.148 C 262.258 229.890,258.657 230.093,257.200 230.417 M248.500 231.076 C 248.885 231.176,249.515 231.176,249.900 231.076 C 250.285 230.975,249.970 230.893,249.200 230.893 C 248.430 230.893,248.115 230.975,248.500 231.076 M100.144 239.200 C 100.144 241.290,100.212 242.145,100.294 241.100 C 100.376 240.055,100.376 238.345,100.294 237.300 C 100.212 236.255,100.144 237.110,100.144 239.200 M219.774 245.800 C 219.775 251.520,219.831 253.804,219.899 250.876 C 219.968 247.948,219.967 243.268,219.899 240.476 C 219.830 237.684,219.774 240.080,219.774 245.800 M253.800 237.600 C 252.711 237.877,252.693 237.907,253.600 237.925 C 254.150 237.935,254.960 237.789,255.400 237.600 C 256.386 237.176,255.466 237.176,253.800 237.600 M108.501 239.400 C 108.505 240.280,108.587 240.593,108.683 240.095 C 108.779 239.598,108.775 238.878,108.675 238.495 C 108.575 238.113,108.496 238.520,108.501 239.400 M262.920 240.000 C 262.920 241.210,262.995 241.705,263.087 241.100 C 263.178 240.495,263.178 239.505,263.087 238.900 C 262.995 238.295,262.920 238.790,262.920 240.000 M108.565 249.000 C 108.566 252.960,108.626 254.526,108.698 252.480 C 108.771 250.434,108.771 247.194,108.698 245.280 C 108.624 243.366,108.565 245.040,108.565 249.000 M120.958 249.000 C 120.958 252.080,121.021 253.287,121.097 251.682 C 121.173 250.078,121.173 247.558,121.096 246.082 C 121.019 244.607,120.957 245.920,120.958 249.000 M335.759 249.600 C 335.759 252.790,335.821 254.095,335.897 252.500 C 335.973 250.905,335.973 248.295,335.897 246.700 C 335.821 245.105,335.759 246.410,335.759 249.600 M196.100 247.887 C 196.705 247.978,197.695 247.978,198.300 247.887 C 198.905 247.795,198.410 247.720,197.200 247.720 C 195.990 247.720,195.495 247.795,196.100 247.887 M323.744 251.600 C 323.744 253.690,323.812 254.545,323.894 253.500 C 323.976 252.455,323.976 250.745,323.894 249.700 C 323.812 248.655,323.744 249.510,323.744 251.600 M253.100 249.482 C 253.595 249.578,254.405 249.578,254.900 249.482 C 255.395 249.387,254.990 249.309,254.000 249.309 C 253.010 249.309,252.605 249.387,253.100 249.482 M168.093 250.800 C 168.093 251.570,168.175 251.885,168.276 251.500 C 168.376 251.115,168.376 250.485,168.276 250.100 C 168.175 249.715,168.093 250.030,168.093 250.800 M284.200 251.600 C 285.059 252.480,285.852 253.200,285.962 253.200 C 286.072 253.200,285.459 252.480,284.600 251.600 C 283.741 250.720,282.948 250.000,282.838 250.000 C 282.728 250.000,283.341 250.720,284.200 251.600 M316.975 252.100 L 315.800 253.400 317.100 252.225 C 317.815 251.579,318.400 250.994,318.400 250.925 C 318.400 250.616,318.070 250.888,316.975 252.100 M154.800 254.925 C 154.800 254.994,155.385 255.579,156.100 256.225 L 157.400 257.400 156.225 256.100 C 155.130 254.888,154.800 254.616,154.800 254.925 M165.775 256.100 L 164.600 257.400 165.900 256.225 C 167.112 255.130,167.384 254.800,167.075 254.800 C 167.006 254.800,166.421 255.385,165.775 256.100 M299.907 258.290 C 300.626 258.379,301.706 258.377,302.307 258.286 C 302.908 258.195,302.320 258.122,301.000 258.124 C 299.680 258.126,299.188 258.201,299.907 258.290 " stroke="none" fill="#a1b8bf" fill-rule="evenodd"></path><path id="path5" d="M94.600 193.143 C 103.271 194.800,102.858 206.514,94.116 206.860 C 92.764 206.913,92.729 206.939,93.793 207.095 C 94.449 207.192,95.634 207.077,96.428 206.839 C 103.738 204.649,102.479 193.488,94.862 192.965 L 93.000 192.837 94.600 193.143 M114.916 193.173 C 118.133 193.342,119.328 193.553,119.610 194.000 C 119.832 194.352,119.990 201.729,119.994 211.876 C 119.998 223.450,120.138 229.238,120.418 229.411 C 121.012 229.778,122.996 227.692,131.524 217.726 C 134.007 214.825,136.344 212.371,136.719 212.272 C 137.356 212.104,137.356 212.090,136.722 212.046 C 136.097 212.004,134.604 213.572,128.400 220.788 C 127.190 222.195,125.300 224.324,124.200 225.519 C 123.100 226.714,122.056 227.941,121.880 228.246 C 120.650 230.377,120.522 228.884,120.447 211.500 C 120.358 190.891,120.939 192.760,114.656 192.873 L 110.600 192.947 114.916 193.173 M329.800 193.153 C 332.000 193.289,334.025 193.546,334.300 193.724 C 334.688 193.974,334.800 198.037,334.800 211.800 C 334.800 222.175,334.953 229.647,335.168 229.780 C 335.592 230.042,338.154 227.399,344.046 220.623 C 346.331 217.996,349.026 214.981,350.036 213.923 C 351.047 212.865,351.642 212.000,351.359 212.000 C 351.077 212.000,350.604 212.344,350.310 212.765 C 350.015 213.186,348.700 214.754,347.387 216.251 C 346.074 217.748,343.493 220.689,341.650 222.786 C 339.808 224.884,337.648 227.227,336.850 227.994 L 335.400 229.388 335.200 211.527 C 335.090 201.703,334.850 193.516,334.668 193.333 C 334.485 193.150,332.415 192.979,330.068 192.953 L 325.800 192.905 329.800 193.153 M90.546 194.199 C 87.613 195.957,86.371 200.171,87.901 203.172 C 88.722 204.783,91.304 206.969,92.068 206.701 C 92.371 206.595,91.982 206.252,91.167 205.906 C 86.646 203.985,86.829 196.084,91.440 194.158 C 92.188 193.845,92.800 193.502,92.800 193.395 C 92.800 193.003,92.163 193.230,90.546 194.199 M109.280 193.680 C 108.427 194.533,108.604 256.139,109.461 256.851 C 109.936 257.246,111.407 257.400,114.696 257.400 C 120.907 257.400,120.800 257.537,120.800 249.620 L 120.800 243.730 122.923 241.394 C 125.277 238.803,125.484 238.798,127.065 241.302 C 127.632 242.202,128.257 243.131,128.452 243.369 C 128.648 243.606,130.921 246.761,133.504 250.381 C 138.967 258.036,138.494 257.757,145.600 257.530 C 152.761 257.301,152.752 257.357,146.947 249.541 C 145.216 247.210,142.270 243.201,140.400 240.631 C 138.530 238.061,136.325 235.050,135.500 233.939 C 133.449 231.177,133.389 231.329,139.113 224.771 C 151.171 210.954,151.052 211.459,142.200 211.698 L 137.400 211.828 142.633 211.914 C 148.441 212.009,148.598 212.059,147.822 213.551 C 147.269 214.614,147.039 214.903,143.683 218.767 C 142.647 219.959,141.540 221.309,141.223 221.767 C 140.906 222.225,140.531 222.690,140.391 222.800 C 139.073 223.832,133.196 231.013,133.347 231.406 C 133.556 231.950,141.957 243.660,142.383 244.000 C 143.202 244.654,150.800 255.630,150.800 256.159 C 150.800 256.950,151.259 256.924,139.392 256.808 C 138.798 256.802,136.888 254.416,132.192 247.808 C 125.031 237.734,125.307 237.927,122.576 241.087 L 120.600 243.375 120.386 249.681 C 120.240 253.975,120.011 256.149,119.667 256.493 C 119.113 257.047,111.151 257.226,109.900 256.713 C 109.242 256.442,109.200 254.569,109.200 225.357 C 109.200 196.237,109.244 194.255,109.900 193.757 C 110.285 193.465,110.411 193.220,110.180 193.213 C 109.949 193.206,109.544 193.416,109.280 193.680 M324.480 193.680 C 324.115 194.045,324.000 201.606,324.000 225.266 L 324.000 256.372 324.900 256.874 C 325.890 257.426,332.330 257.588,334.052 257.104 C 335.442 256.714,335.588 256.009,335.597 249.600 C 335.606 243.734,335.626 243.669,338.288 240.657 C 339.969 238.755,340.502 238.817,342.052 241.100 C 345.504 246.180,352.898 256.383,353.474 256.861 C 354.381 257.613,365.328 257.632,366.078 256.883 C 366.738 256.222,357.170 241.867,353.109 237.425 C 352.719 236.998,352.400 236.535,352.400 236.394 C 352.400 236.254,351.590 235.097,350.600 233.822 C 349.610 232.547,348.800 231.320,348.800 231.096 C 348.800 230.778,352.570 226.152,353.606 225.200 C 353.726 225.090,355.171 223.380,356.817 221.400 C 363.235 213.683,364.373 212.000,363.176 212.000 C 362.943 212.000,362.850 212.158,362.969 212.350 C 363.240 212.789,361.534 215.170,357.633 219.799 C 355.965 221.779,354.240 223.835,353.800 224.368 C 353.360 224.902,351.970 226.432,350.711 227.769 C 349.453 229.106,348.418 230.480,348.411 230.823 C 348.400 231.458,357.828 244.890,358.455 245.133 C 358.645 245.207,358.800 245.445,358.800 245.662 C 358.800 245.879,359.025 246.308,359.300 246.615 C 361.193 248.726,366.000 255.632,366.000 256.240 C 366.000 256.592,365.516 256.825,364.700 256.866 C 360.602 257.075,358.335 257.087,356.135 256.911 L 353.671 256.714 347.143 247.557 C 343.553 242.521,340.487 238.400,340.329 238.400 C 340.018 238.400,339.006 239.356,336.800 241.733 L 335.400 243.241 335.200 249.602 C 335.063 253.944,334.840 256.121,334.497 256.464 C 333.779 257.181,325.910 257.156,325.041 256.434 C 324.009 255.578,324.067 194.541,325.100 193.757 C 325.485 193.465,325.611 193.220,325.380 193.213 C 325.149 193.206,324.744 193.416,324.480 193.680 M36.662 194.331 C 36.130 194.920,36.000 195.933,36.000 199.509 C 36.000 205.473,35.555 205.200,45.280 205.200 L 52.781 205.200 52.905 212.000 L 53.029 218.801 53.015 211.900 L 53.000 205.000 45.600 204.901 C 35.908 204.771,36.400 205.065,36.400 199.412 C 36.400 196.483,36.564 194.796,36.880 194.480 C 37.481 193.879,81.051 193.793,82.000 194.390 C 82.447 194.672,82.658 195.867,82.827 199.084 L 83.053 203.400 83.127 199.300 C 83.240 192.982,85.804 193.600,59.462 193.600 C 38.523 193.600,37.288 193.640,36.662 194.331 M179.600 200.561 C 178.630 201.116,178.594 201.291,178.400 206.466 L 178.200 211.800 175.210 211.919 C 171.054 212.085,170.778 212.394,170.881 216.762 L 170.963 220.200 171.099 216.820 C 171.270 212.579,171.420 212.400,174.816 212.400 C 179.003 212.400,178.800 212.684,178.800 206.837 C 178.800 200.538,178.563 200.800,184.256 200.800 C 189.669 200.800,189.301 200.372,189.580 206.992 L 189.800 212.200 195.174 212.312 C 201.787 212.450,201.600 212.314,201.600 217.006 C 201.600 221.503,201.963 221.252,195.000 221.566 L 189.800 221.800 189.694 233.561 C 189.563 248.086,189.740 248.485,196.260 248.338 L 199.000 248.276 195.712 248.024 C 192.804 247.801,192.283 247.638,191.212 246.611 L 190.000 245.450 190.000 233.725 L 190.000 222.000 194.820 222.000 C 198.358 222.000,199.954 221.838,200.820 221.390 L 202.000 220.779 202.000 216.813 C 202.000 211.973,202.369 212.251,195.600 212.000 L 190.200 211.800 189.995 206.709 C 189.733 200.198,189.765 200.238,184.487 200.095 C 181.689 200.019,180.320 200.150,179.600 200.561 M81.600 204.200 C 81.190 204.694,79.784 204.800,73.631 204.800 C 68.354 204.800,66.019 204.941,65.680 205.280 C 65.317 205.643,65.199 211.860,65.194 230.780 C 65.190 245.814,65.037 256.039,64.809 256.399 C 64.336 257.148,55.085 257.245,54.348 256.508 C 54.042 256.202,53.809 251.296,53.616 241.129 L 53.334 226.200 53.267 240.856 C 53.184 258.930,52.599 257.400,59.600 257.400 C 66.749 257.400,66.000 260.564,66.000 230.356 L 66.000 205.200 73.556 205.200 C 80.482 205.200,81.190 205.134,82.056 204.413 C 82.575 203.981,82.797 203.621,82.549 203.613 C 82.301 203.606,81.874 203.870,81.600 204.200 M227.400 211.687 C 225.224 212.456,223.018 214.189,221.800 216.087 C 220.240 218.518,220.148 218.483,219.898 215.363 C 219.781 213.913,219.477 212.518,219.222 212.263 C 218.523 211.565,209.517 211.638,208.661 212.349 C 207.939 212.948,207.625 255.190,208.334 256.307 C 209.130 257.561,216.351 258.118,218.400 257.083 L 219.400 256.578 219.640 244.789 C 219.997 227.191,222.120 223.319,231.467 223.214 C 233.990 223.186,234.008 223.150,233.921 218.257 L 233.842 213.800 233.621 218.200 L 233.400 222.600 231.600 222.703 C 221.616 223.274,219.563 226.918,219.223 244.668 C 219.100 251.085,218.850 256.485,218.666 256.668 C 218.079 257.253,209.802 257.066,209.061 256.450 C 208.187 255.726,208.031 213.078,208.900 212.533 C 209.752 211.999,217.404 211.867,218.345 212.371 C 219.101 212.775,219.200 213.174,219.200 215.814 C 219.200 219.391,219.790 219.722,221.494 217.100 C 224.665 212.221,232.258 209.600,233.596 212.922 C 233.942 213.782,233.950 213.783,233.975 212.964 C 234.022 211.389,230.294 210.665,227.400 211.687 M250.000 211.766 C 244.886 212.890,240.776 215.817,238.944 219.641 C 237.033 223.630,236.903 224.241,237.724 225.364 C 238.185 225.995,238.228 225.904,238.078 224.620 C 236.649 212.377,260.967 206.625,270.538 216.942 C 271.383 217.854,271.882 218.213,271.645 217.741 C 269.102 212.657,258.837 209.823,250.000 211.766 M295.600 211.644 C 287.593 213.768,283.617 216.928,280.217 223.873 C 278.145 228.105,277.401 235.715,278.621 240.200 C 279.001 241.597,279.111 241.778,278.987 240.800 C 277.663 230.372,279.381 223.657,284.877 217.782 C 291.783 210.399,306.722 209.392,314.600 215.778 C 320.670 220.699,321.179 223.645,316.242 225.274 C 314.873 225.725,314.530 225.950,315.200 225.957 C 324.955 226.054,317.931 214.073,306.877 211.760 C 303.895 211.136,297.752 211.073,295.600 211.644 M89.700 212.012 C 88.869 212.347,88.800 212.627,88.797 215.687 C 88.768 251.196,88.815 256.575,89.159 256.919 C 90.782 258.542,100.027 257.471,99.960 255.669 L 99.920 254.600 99.644 255.590 C 99.277 256.908,96.934 257.372,92.515 257.004 L 89.200 256.728 89.200 234.611 L 89.200 212.493 90.100 212.252 C 91.256 211.942,97.529 211.938,98.678 212.246 C 99.336 212.423,99.595 212.848,99.711 213.941 L 99.866 215.400 99.933 213.890 C 99.990 212.608,99.846 212.321,98.974 211.990 C 97.699 211.506,90.921 211.522,89.700 212.012 M354.917 211.897 C 356.411 211.974,358.751 211.974,360.117 211.896 C 361.482 211.818,360.260 211.755,357.400 211.755 C 354.540 211.756,353.422 211.820,354.917 211.897 M100.173 226.200 C 100.173 231.480,100.230 233.585,100.299 230.877 C 100.368 228.169,100.368 223.849,100.299 221.277 C 100.229 218.705,100.172 220.920,100.173 226.200 M272.000 219.110 C 272.000 219.306,272.123 219.590,272.274 219.741 C 272.708 220.175,273.583 222.901,273.640 224.000 C 273.680 224.764,273.738 224.823,273.885 224.250 C 274.102 223.406,272.923 219.323,272.363 218.977 C 272.163 218.854,272.000 218.913,272.000 219.110 M252.601 220.230 C 250.768 221.186,249.954 222.043,249.129 223.886 C 248.319 225.697,247.114 226.772,245.811 226.846 C 245.242 226.879,245.189 226.943,245.632 227.063 C 247.045 227.443,248.357 226.442,249.480 224.126 C 251.780 219.383,256.791 218.505,260.766 222.148 L 262.133 223.400 261.274 222.149 C 259.640 219.769,255.319 218.813,252.601 220.230 M171.701 221.040 C 172.214 221.576,173.157 221.817,175.201 221.932 L 178.000 222.090 178.009 235.745 C 178.019 251.812,178.529 253.771,183.359 256.287 C 187.525 258.457,200.287 258.481,201.657 256.321 C 203.215 253.865,201.681 247.201,199.679 247.728 C 199.146 247.869,199.176 247.917,199.820 247.954 C 201.299 248.037,201.600 248.798,201.600 252.456 C 201.600 256.409,201.623 256.376,198.400 257.073 C 192.388 258.373,185.457 257.392,181.990 254.750 C 178.763 252.290,178.625 251.564,178.400 235.800 L 178.200 221.800 175.543 221.537 C 174.082 221.393,172.462 221.057,171.943 220.791 C 171.036 220.325,171.027 220.335,171.701 221.040 M297.903 221.610 C 295.083 222.319,290.800 225.942,290.800 227.618 C 290.800 227.894,291.371 227.328,292.070 226.360 C 294.482 223.017,296.700 221.865,300.800 221.828 C 304.870 221.790,305.656 222.078,308.413 224.612 C 310.792 226.799,311.707 227.127,313.400 226.400 C 313.991 226.146,313.663 226.049,312.147 226.028 C 310.285 226.003,309.996 225.870,309.024 224.596 C 306.951 221.878,302.059 220.564,297.903 221.610 M262.231 224.400 C 263.799 229.974,263.447 230.311,255.524 230.809 L 250.200 231.144 256.289 231.003 C 259.638 230.925,262.563 230.747,262.789 230.607 C 263.431 230.210,263.260 225.544,262.561 224.400 L 261.950 223.400 262.231 224.400 M274.303 240.200 C 274.433 253.131,274.368 255.518,273.867 256.191 C 272.987 257.373,265.428 257.399,264.568 256.224 C 264.089 255.569,264.000 255.550,264.000 256.105 C 264.000 257.943,273.313 258.123,274.466 256.307 C 274.863 255.681,274.840 229.760,274.440 227.000 C 274.280 225.900,274.218 231.840,274.303 240.200 M239.400 226.400 C 239.840 226.589,241.190 226.736,242.400 226.726 C 244.598 226.708,244.598 226.708,243.000 226.377 C 240.775 225.917,238.312 225.933,239.400 226.400 M290.267 228.667 C 290.120 228.813,290.011 229.308,290.025 229.767 C 290.049 230.533,290.082 230.523,290.434 229.642 C 290.826 228.663,290.744 228.189,290.267 228.667 M289.746 234.600 C 289.747 236.800,289.814 237.649,289.895 236.487 C 289.976 235.324,289.976 233.524,289.893 232.487 C 289.811 231.449,289.745 232.400,289.746 234.600 M245.925 231.788 C 240.410 233.307,234.378 238.954,235.310 241.726 C 235.398 241.986,235.704 241.480,235.990 240.600 C 236.930 237.714,239.048 235.244,241.690 233.952 C 244.446 232.605,245.075 232.380,247.600 231.838 C 249.069 231.523,249.678 231.278,249.000 231.276 C 248.340 231.274,246.956 231.504,245.925 231.788 M252.029 237.503 C 246.886 239.016,244.872 244.445,248.213 247.787 C 248.991 248.564,249.936 249.188,250.313 249.174 C 250.749 249.158,250.546 248.922,249.760 248.530 C 246.122 246.715,246.246 240.705,249.961 238.826 C 253.817 236.876,262.603 236.477,263.044 238.232 C 264.565 244.294,259.102 250.277,252.804 249.444 C 251.559 249.279,251.186 249.327,251.600 249.597 C 253.343 250.733,259.007 249.326,260.853 247.299 C 263.049 244.888,264.179 240.761,263.444 237.834 L 263.185 236.800 258.692 236.832 C 255.841 236.853,253.407 237.098,252.029 237.503 M290.027 239.142 C 289.908 241.516,294.746 247.200,296.886 247.200 C 297.162 247.200,296.799 246.884,296.079 246.498 C 294.286 245.536,292.186 243.417,291.503 241.878 C 291.191 241.175,290.737 240.150,290.495 239.600 C 290.252 239.050,290.042 238.844,290.027 239.142 M309.045 243.445 C 308.140 244.459,306.773 245.719,306.007 246.245 C 305.044 246.906,304.834 247.200,305.326 247.200 C 306.062 247.200,310.000 243.537,310.000 242.852 C 310.000 242.640,310.495 242.286,311.100 242.065 C 311.891 241.776,311.988 241.654,311.445 241.632 C 311.026 241.614,309.959 242.420,309.045 243.445 M314.400 242.628 C 319.744 244.026,320.701 245.088,319.358 248.125 C 315.554 256.724,300.550 260.347,290.152 255.176 C 287.553 253.884,283.200 250.200,283.200 249.293 C 283.200 249.022,283.058 248.800,282.884 248.800 C 282.547 248.800,280.691 245.358,279.997 243.445 C 279.766 242.809,279.474 242.392,279.348 242.518 C 279.222 242.644,279.793 244.154,280.617 245.874 C 285.876 256.846,300.273 261.350,311.939 255.673 C 316.835 253.290,321.070 247.940,320.208 245.224 C 319.816 243.989,315.421 241.987,313.200 242.032 C 312.638 242.044,313.164 242.305,314.400 242.628 M234.970 245.400 C 235.093 249.098,236.040 251.507,238.232 253.698 C 239.700 255.167,243.045 257.089,243.441 256.692 C 243.571 256.562,242.784 256.071,241.692 255.601 C 237.858 253.952,235.670 250.470,235.156 245.200 L 234.864 242.200 234.970 245.400 M100.159 248.400 C 100.159 251.590,100.221 252.895,100.297 251.300 C 100.373 249.705,100.373 247.095,100.297 245.500 C 100.221 243.905,100.159 245.210,100.159 248.400 M159.400 243.941 C 152.700 246.131,152.137 254.813,158.519 257.525 C 164.695 260.149,170.837 252.286,166.900 246.793 C 165.783 245.235,164.116 243.998,163.138 244.002 C 162.842 244.004,163.140 244.286,163.799 244.630 C 170.266 248.002,168.172 257.600,160.970 257.600 C 152.632 257.600,152.274 245.586,160.567 244.067 C 161.855 243.831,162.160 243.692,161.400 243.687 C 160.740 243.683,159.840 243.797,159.400 243.941 M297.862 247.700 C 297.964 247.865,299.376 248.000,301.000 248.000 C 302.624 248.000,304.036 247.865,304.138 247.700 C 304.240 247.535,302.828 247.400,301.000 247.400 C 299.172 247.400,297.760 247.535,297.862 247.700 M261.465 254.574 C 257.423 257.447,252.869 258.131,245.200 257.015 C 244.178 256.866,244.340 256.975,245.800 257.419 C 250.197 258.756,257.226 257.805,260.819 255.387 C 263.174 253.802,263.471 253.732,263.724 254.700 C 263.866 255.241,263.918 255.200,263.954 254.524 C 264.027 253.134,263.475 253.145,261.465 254.574 " stroke="none" fill="#7c848c" fill-rule="evenodd"></path><path id="path6" d="M269.146 140.466 C 267.191 142.199,266.593 143.709,267.251 145.256 C 268.014 147.051,270.122 150.372,270.509 150.387 C 270.874 150.402,269.781 148.572,268.680 147.325 C 267.163 145.607,267.287 143.033,268.967 141.353 L 270.435 139.885 277.317 140.146 C 281.103 140.290,285.280 140.486,286.600 140.583 C 288.907 140.751,288.930 140.743,287.200 140.390 C 282.454 139.419,270.270 139.471,269.146 140.466 M292.400 141.176 C 293.830 141.347,297.160 141.697,299.800 141.954 C 302.440 142.210,305.050 142.518,305.600 142.638 C 306.262 142.783,306.465 142.723,306.200 142.460 C 305.788 142.052,298.111 141.209,292.800 140.989 L 289.800 140.865 292.400 141.176 M307.926 143.912 C 308.516 144.524,309.076 144.974,309.168 144.911 C 309.399 144.755,307.535 142.800,307.156 142.800 C 306.988 142.800,307.335 143.301,307.926 143.912 M309.206 146.924 C 309.202 147.839,309.360 148.348,309.600 148.200 C 310.106 147.888,310.106 146.782,309.600 146.000 C 309.312 145.555,309.211 145.793,309.206 146.924 M308.053 150.853 C 307.580 151.993,307.277 153.011,307.381 153.114 C 307.485 153.218,307.779 152.785,308.035 152.152 C 308.290 151.518,308.687 150.595,308.917 150.101 C 309.147 149.606,309.240 149.107,309.125 148.991 C 309.009 148.876,308.527 149.714,308.053 150.853 M270.802 151.100 C 270.803 151.265,271.257 151.940,271.810 152.600 L 272.816 153.800 271.968 152.300 C 271.145 150.842,270.798 150.485,270.802 151.100 M306.053 155.653 C 305.580 156.793,305.277 157.811,305.381 157.914 C 305.485 158.018,305.779 157.585,306.035 156.952 C 306.290 156.318,306.687 155.395,306.917 154.901 C 307.147 154.406,307.240 153.907,307.125 153.791 C 307.009 153.676,306.527 154.514,306.053 155.653 M272.195 154.980 C 271.752 155.431,270.852 156.207,270.195 156.703 C 263.896 161.465,257.199 166.703,256.800 167.181 C 256.690 167.313,255.790 168.045,254.800 168.808 C 253.810 169.572,252.390 170.737,251.644 171.398 C 250.898 172.059,250.084 172.780,249.834 173.000 C 249.585 173.220,248.395 174.210,247.190 175.199 C 243.690 178.074,243.600 178.158,243.600 178.570 C 243.600 178.786,244.275 178.323,245.100 177.543 C 247.561 175.213,258.175 166.487,264.600 161.512 C 271.703 156.011,273.469 154.533,273.200 154.319 C 273.090 154.231,272.638 154.529,272.195 154.980 M304.053 160.453 C 303.580 161.593,303.277 162.611,303.381 162.714 C 303.485 162.818,303.779 162.385,304.035 161.752 C 304.290 161.118,304.687 160.195,304.917 159.701 C 305.147 159.206,305.240 158.707,305.125 158.591 C 305.009 158.476,304.527 159.314,304.053 160.453 M302.053 165.253 C 301.580 166.393,301.277 167.411,301.381 167.514 C 301.485 167.618,301.779 167.185,302.035 166.552 C 302.290 165.918,302.687 164.995,302.917 164.501 C 303.147 164.006,303.240 163.507,303.125 163.391 C 303.009 163.276,302.527 164.114,302.053 165.253 M300.053 170.053 C 299.580 171.193,299.277 172.211,299.381 172.314 C 299.485 172.418,299.779 171.985,300.035 171.352 C 300.290 170.718,300.687 169.795,300.917 169.301 C 301.147 168.806,301.240 168.307,301.125 168.191 C 301.009 168.076,300.527 168.914,300.053 170.053 M275.885 172.543 C 269.746 176.411,268.668 177.200,269.520 177.200 C 269.784 177.200,270.000 177.020,270.000 176.800 C 270.000 176.580,270.192 176.400,270.427 176.400 C 270.661 176.400,271.443 175.950,272.164 175.400 C 272.886 174.850,273.606 174.400,273.764 174.400 C 273.923 174.400,274.643 173.950,275.364 173.400 C 276.086 172.850,276.861 172.400,277.089 172.400 C 277.316 172.400,277.712 172.147,277.969 171.837 C 278.226 171.527,279.014 170.982,279.718 170.626 C 280.423 170.269,281.327 169.758,281.727 169.489 C 282.579 168.916,283.687 170.056,285.176 173.038 C 285.992 174.672,286.827 175.654,286.779 174.924 C 286.730 174.184,282.952 168.996,282.400 168.909 C 282.070 168.858,279.138 170.493,275.885 172.543 M298.053 174.853 C 297.177 176.963,297.082 178.019,297.933 176.199 C 298.190 175.650,298.610 174.750,298.867 174.201 C 299.124 173.651,299.240 173.107,299.125 172.991 C 299.009 172.876,298.527 173.714,298.053 174.853 M286.880 175.900 C 287.820 177.831,288.178 178.400,288.451 178.400 C 288.628 178.400,288.401 177.770,287.947 177.000 C 287.249 175.817,286.426 174.968,286.880 175.900 M265.384 179.323 C 262.247 181.349,258.766 183.823,249.800 190.399 C 247.380 192.174,244.179 194.364,242.687 195.267 C 241.195 196.169,240.047 196.981,240.137 197.070 C 240.382 197.315,247.942 192.541,250.000 190.842 C 252.220 189.010,263.369 181.054,266.500 179.068 C 267.765 178.266,268.800 177.518,268.800 177.405 C 268.800 177.110,268.891 177.058,265.384 179.323 M295.816 178.784 C 295.196 179.430,294.310 180.034,293.845 180.125 C 293.055 180.280,293.052 180.294,293.800 180.339 C 294.589 180.387,297.500 178.167,297.132 177.798 C 297.027 177.694,296.435 178.137,295.816 178.784 M241.956 179.700 C 241.382 180.195,240.109 181.320,239.126 182.200 C 238.144 183.080,236.752 184.250,236.034 184.800 C 235.316 185.350,234.056 186.340,233.235 187.000 C 232.414 187.660,231.240 188.560,230.627 189.000 C 230.013 189.440,229.306 189.980,229.056 190.200 C 226.728 192.244,219.114 197.008,215.064 198.956 C 213.340 199.785,212.025 200.558,212.141 200.674 C 213.400 201.933,238.594 184.468,242.760 179.449 C 243.515 178.539,243.184 178.643,241.956 179.700 M289.450 179.608 C 289.918 180.087,290.575 180.415,290.912 180.339 C 291.296 180.252,290.980 179.928,290.062 179.469 L 288.600 178.739 289.450 179.608 M93.500 192.682 C 93.995 192.778,94.805 192.778,95.300 192.682 C 95.795 192.587,95.390 192.509,94.400 192.509 C 93.410 192.509,93.005 192.587,93.500 192.682 M112.700 192.695 C 113.855 192.776,115.745 192.776,116.900 192.695 C 118.055 192.614,117.110 192.548,114.800 192.548 C 112.490 192.548,111.545 192.614,112.700 192.695 M327.900 192.695 C 329.055 192.776,330.945 192.776,332.100 192.695 C 333.255 192.614,332.310 192.548,330.000 192.548 C 327.690 192.548,326.745 192.614,327.900 192.695 M37.462 193.100 C 37.360 193.265,47.322 193.400,59.600 193.400 C 71.878 193.400,81.840 193.265,81.738 193.100 C 81.636 192.935,71.674 192.800,59.600 192.800 C 47.526 192.800,37.564 192.935,37.462 193.100 M120.138 193.531 C 120.728 194.183,120.810 196.033,120.895 210.431 L 120.991 226.600 121.104 210.600 C 121.217 194.685,121.086 192.800,119.870 192.800 C 119.653 192.800,119.774 193.129,120.138 193.531 M108.250 194.850 C 107.896 196.621,107.950 255.703,108.306 256.259 C 108.468 256.512,108.614 242.517,108.632 225.159 C 108.650 207.802,108.627 193.600,108.582 193.600 C 108.537 193.600,108.388 194.163,108.250 194.850 M335.332 194.167 C 335.479 194.551,335.600 202.405,335.600 211.620 C 335.600 227.223,335.647 228.357,336.280 228.114 C 336.705 227.951,336.780 227.793,336.480 227.693 C 336.117 227.572,336.000 223.453,336.000 210.790 C 336.000 198.438,335.877 193.971,335.532 193.758 C 335.213 193.561,335.149 193.691,335.332 194.167 M83.400 199.002 C 83.400 201.270,83.532 202.917,83.694 202.663 C 83.856 202.408,83.988 200.760,83.988 199.000 C 83.988 197.240,83.856 195.593,83.694 195.340 C 83.532 195.087,83.400 196.735,83.400 199.002 M35.342 199.400 C 35.341 201.380,35.408 202.240,35.492 201.312 C 35.576 200.384,35.577 198.764,35.495 197.712 C 35.412 196.660,35.343 197.420,35.342 199.400 M101.400 199.774 C 101.400 201.394,101.532 202.513,101.694 202.260 C 102.057 201.692,102.042 198.447,101.672 197.515 C 101.522 197.138,101.400 198.155,101.400 199.774 M237.600 198.200 C 236.610 198.730,235.997 199.172,236.239 199.182 C 236.828 199.206,239.126 198.044,239.416 197.575 C 239.726 197.072,239.671 197.091,237.600 198.200 M232.621 200.144 C 231.296 200.619,230.551 201.057,230.940 201.132 C 231.324 201.206,231.855 201.092,232.119 200.879 C 232.384 200.666,233.183 200.368,233.895 200.215 C 234.608 200.063,235.294 199.772,235.419 199.569 C 235.723 199.078,235.418 199.140,232.621 200.144 M178.654 200.429 C 177.602 201.257,177.600 201.266,177.687 206.529 L 177.774 211.800 177.890 206.600 C 178.040 199.895,177.940 200.000,184.182 200.000 C 189.437 200.000,189.859 200.243,190.102 203.403 L 190.256 205.400 190.328 203.300 C 190.442 199.964,189.845 199.600,184.254 199.600 C 180.260 199.600,179.580 199.701,178.654 200.429 M210.560 201.265 C 209.142 203.559,225.894 203.869,229.465 201.615 C 230.088 201.222,230.016 201.190,229.000 201.403 C 222.689 202.729,215.148 203.170,212.300 202.379 C 210.783 201.958,210.385 201.434,211.300 201.065 C 211.661 200.919,211.667 200.854,211.324 200.832 C 211.062 200.814,210.718 201.009,210.560 201.265 M87.600 204.182 C 87.600 204.462,89.603 206.400,89.893 206.400 C 90.034 206.400,89.632 205.860,89.000 205.200 C 87.867 204.018,87.600 203.823,87.600 204.182 M44.782 205.495 C 50.035 205.583,52.265 205.760,52.513 206.109 C 52.765 206.465,52.816 206.434,52.697 206.000 C 52.560 205.494,51.346 205.398,44.967 205.386 L 37.400 205.372 44.782 205.495 M71.500 205.498 C 73.315 205.572,76.285 205.572,78.100 205.498 C 79.915 205.423,78.430 205.363,74.800 205.363 C 71.170 205.363,69.685 205.423,71.500 205.498 M66.097 231.020 C 66.024 249.992,65.881 256.359,65.520 256.720 C 65.155 257.085,65.153 257.200,65.512 257.200 C 66.373 257.200,66.422 255.580,66.307 230.600 L 66.194 205.800 66.097 231.020 M93.500 207.482 C 93.995 207.578,94.805 207.578,95.300 207.482 C 95.795 207.387,95.390 207.309,94.400 207.309 C 93.410 207.309,93.005 207.387,93.500 207.482 M90.262 211.100 C 90.159 211.265,92.021 211.400,94.399 211.400 C 96.777 211.400,98.639 211.265,98.538 211.100 C 98.436 210.935,96.574 210.800,94.400 210.800 C 92.226 210.800,90.364 210.935,90.262 211.100 M137.337 211.106 C 137.083 211.268,139.451 211.400,142.599 211.400 C 145.747 211.400,148.239 211.265,148.138 211.100 C 147.899 210.713,137.948 210.718,137.337 211.106 M210.262 211.100 C 210.159 211.265,211.931 211.400,214.199 211.400 C 216.467 211.400,218.239 211.265,218.138 211.100 C 218.036 210.935,216.264 210.800,214.200 210.800 C 212.136 210.800,210.364 210.935,210.262 211.100 M249.790 211.216 C 249.621 211.489,249.923 211.538,250.666 211.360 C 252.199 210.992,252.344 210.800,251.090 210.800 C 250.517 210.800,249.932 210.987,249.790 211.216 M261.800 211.200 C 262.901 211.673,263.292 211.673,263.000 211.200 C 262.864 210.980,262.358 210.813,261.876 210.828 C 261.031 210.855,261.029 210.869,261.800 211.200 M295.000 211.200 C 294.708 211.673,295.099 211.673,296.200 211.200 C 296.971 210.869,296.969 210.855,296.124 210.828 C 295.642 210.813,295.136 210.980,295.000 211.200 M305.800 211.200 C 306.901 211.673,307.292 211.673,307.000 211.200 C 306.864 210.980,306.358 210.813,305.876 210.828 C 305.031 210.855,305.029 210.869,305.800 211.200 M323.355 215.800 C 323.356 218.660,323.420 219.778,323.497 218.283 C 323.574 216.789,323.574 214.449,323.496 213.083 C 323.418 211.718,323.355 212.940,323.355 215.800 M352.103 211.128 C 351.830 211.301,353.742 211.367,356.353 211.274 C 362.701 211.048,365.085 211.824,363.500 213.601 C 363.075 214.078,363.104 214.082,363.700 213.632 C 364.722 212.858,364.559 212.103,363.220 211.410 C 361.941 210.749,353.055 210.523,352.103 211.128 M88.200 212.800 C 87.320 214.502,87.470 256.053,88.359 256.880 C 88.829 257.318,88.861 257.273,88.559 256.600 C 87.859 255.040,87.901 214.152,88.603 212.794 C 88.943 212.137,89.131 211.600,89.021 211.600 C 88.911 211.600,88.541 212.140,88.200 212.800 M134.618 212.618 C 133.183 214.054,133.345 214.394,134.800 213.000 C 135.460 212.368,136.000 211.794,136.000 211.725 C 136.000 211.396,135.548 211.688,134.618 212.618 M219.300 212.032 C 219.823 212.337,220.002 212.965,220.006 214.520 C 220.009 215.664,220.156 216.827,220.332 217.104 C 220.508 217.380,220.574 216.480,220.478 215.104 C 220.305 212.595,219.894 211.589,219.051 211.612 C 218.803 211.619,218.915 211.808,219.300 212.032 M246.400 212.200 C 245.122 212.930,245.396 212.934,247.400 212.212 C 248.280 211.895,248.640 211.634,248.200 211.632 C 247.760 211.630,246.950 211.886,246.400 212.200 M264.400 211.886 C 264.730 212.008,265.360 212.274,265.800 212.476 C 266.587 212.838,266.588 212.834,265.824 212.222 C 265.396 211.880,264.766 211.614,264.424 211.632 C 263.885 211.659,263.882 211.693,264.400 211.886 M291.600 212.200 C 290.322 212.930,290.596 212.934,292.600 212.212 C 293.480 211.895,293.840 211.634,293.400 211.632 C 292.960 211.630,292.150 211.886,291.600 212.200 M309.269 211.991 C 309.856 212.169,310.576 212.437,310.869 212.587 C 311.161 212.737,311.051 212.576,310.624 212.230 C 310.196 211.883,309.476 211.615,309.024 211.634 C 308.363 211.662,308.411 211.733,309.269 211.991 M234.553 217.400 C 234.553 220.040,234.618 221.068,234.697 219.684 C 234.775 218.301,234.774 216.141,234.695 214.884 C 234.616 213.628,234.552 214.760,234.553 217.400 M243.400 213.810 L 242.200 214.816 243.700 213.968 C 244.525 213.502,245.200 213.049,245.200 212.960 C 245.200 212.557,244.501 212.887,243.400 213.810 M267.400 213.324 C 267.840 213.586,269.145 214.718,270.300 215.839 C 271.455 216.961,272.400 217.745,272.400 217.582 C 272.400 217.095,267.594 212.798,267.077 212.824 C 266.815 212.836,266.960 213.061,267.400 213.324 M287.712 213.934 C 286.783 214.521,286.018 215.128,286.012 215.283 C 286.005 215.439,286.900 215.007,288.000 214.324 C 289.100 213.640,290.000 213.017,290.000 212.940 C 290.000 212.626,289.312 212.924,287.712 213.934 M312.000 212.960 C 312.000 213.049,312.675 213.502,313.500 213.968 L 315.000 214.816 313.800 213.810 C 312.699 212.887,312.000 212.557,312.000 212.960 M170.542 216.600 C 170.541 218.580,170.608 219.440,170.692 218.512 C 170.776 217.584,170.777 215.964,170.695 214.912 C 170.612 213.860,170.543 214.620,170.542 216.600 M348.055 214.600 C 347.354 215.370,346.920 216.000,347.090 216.000 C 347.261 216.000,347.903 215.370,348.517 214.600 C 349.955 212.798,349.695 212.798,348.055 214.600 M100.515 234.653 C 100.464 247.302,100.573 255.479,100.787 255.000 C 101.204 254.066,101.286 217.341,100.877 215.053 C 100.725 214.202,100.562 223.022,100.515 234.653 M362.075 215.400 C 361.597 215.950,361.363 216.400,361.557 216.400 C 361.750 216.400,362.203 215.950,362.563 215.400 C 362.924 214.850,363.157 214.400,363.081 214.400 C 363.006 214.400,362.553 214.850,362.075 215.400 M316.000 215.677 C 316.000 215.787,316.360 216.293,316.800 216.800 C 317.240 217.307,317.600 217.543,317.600 217.323 C 317.600 217.104,317.240 216.598,316.800 216.200 C 316.360 215.802,316.000 215.566,316.000 215.677 M359.648 218.400 C 358.941 219.280,358.506 219.996,358.681 219.991 C 358.996 219.983,361.401 216.800,361.093 216.800 C 361.005 216.800,360.355 217.520,359.648 218.400 M144.841 218.614 C 144.159 219.392,143.600 220.146,143.600 220.289 C 143.600 220.433,143.915 220.195,144.300 219.759 C 146.087 217.738,146.508 217.200,146.303 217.200 C 146.182 217.200,145.524 217.836,144.841 218.614 M129.433 218.500 C 129.024 218.995,128.416 219.715,128.082 220.100 C 126.877 221.492,127.907 220.761,129.352 219.200 C 130.166 218.320,130.685 217.600,130.505 217.600 C 130.325 217.600,129.843 218.005,129.433 218.500 M282.300 218.988 C 281.492 220.098,281.362 220.709,282.100 219.927 C 283.160 218.803,283.684 218.001,283.349 218.013 C 283.157 218.019,282.685 218.458,282.300 218.988 M343.000 220.253 C 341.529 221.987,340.739 223.384,342.011 222.000 C 342.517 221.450,343.385 220.505,343.940 219.900 C 344.495 219.295,344.781 218.808,344.575 218.819 C 344.369 218.829,343.660 219.474,343.000 220.253 M273.200 220.287 C 273.200 220.543,273.380 220.864,273.600 221.000 C 273.820 221.136,274.025 221.732,274.054 222.324 C 274.102 223.257,274.132 223.281,274.281 222.506 C 274.376 222.015,274.172 221.210,273.827 220.717 C 273.482 220.225,273.200 220.031,273.200 220.287 M357.004 221.596 C 356.374 222.254,355.935 222.856,356.029 222.934 C 356.123 223.012,356.713 222.474,357.339 221.738 C 358.754 220.077,358.545 219.988,357.004 221.596 M171.362 221.500 C 171.880 222.112,172.520 222.381,173.362 222.340 L 174.600 222.280 173.400 222.107 C 172.740 222.011,171.840 221.633,171.400 221.267 C 170.606 220.605,170.606 220.607,171.362 221.500 M126.055 222.600 C 125.354 223.370,124.920 224.000,125.090 224.000 C 125.261 224.000,125.903 223.370,126.517 222.600 C 127.955 220.798,127.695 220.798,126.055 222.600 M299.891 222.289 C 300.601 222.377,301.861 222.379,302.691 222.292 C 303.521 222.205,302.940 222.133,301.400 222.131 C 299.860 222.129,299.181 222.200,299.891 222.289 M177.765 229.200 C 177.765 233.050,177.825 234.625,177.898 232.700 C 177.971 230.775,177.971 227.625,177.898 225.700 C 177.825 223.775,177.765 225.350,177.765 229.200 M230.271 223.462 C 230.127 223.606,229.332 223.871,228.504 224.049 C 227.128 224.346,227.153 224.355,228.800 224.156 C 229.790 224.036,231.320 223.795,232.200 223.619 L 233.800 223.300 232.167 223.250 C 231.268 223.223,230.415 223.318,230.271 223.462 M294.370 224.300 L 293.400 225.400 294.600 224.400 C 295.260 223.850,295.875 223.355,295.967 223.300 C 296.058 223.245,295.955 223.200,295.736 223.200 C 295.518 223.200,294.903 223.695,294.370 224.300 M307.607 224.637 C 308.917 226.177,310.381 227.413,310.557 227.128 C 310.600 227.057,309.640 226.100,308.425 225.000 C 306.312 223.089,306.276 223.073,307.607 224.637 M124.200 224.706 C 123.980 224.868,123.535 225.360,123.212 225.800 C 122.778 226.391,122.909 226.346,123.712 225.630 C 124.691 224.758,124.989 224.388,124.700 224.406 C 124.645 224.409,124.420 224.544,124.200 224.706 M261.840 226.000 C 261.956 226.990,262.128 228.187,262.223 228.661 C 262.389 229.491,262.230 229.531,257.698 229.786 C 255.114 229.932,252.280 230.201,251.400 230.384 C 249.739 230.730,254.896 230.526,260.000 230.045 L 262.600 229.800 262.457 227.819 C 262.379 226.729,262.160 225.469,261.972 225.019 C 261.744 224.475,261.700 224.804,261.840 226.000 M274.659 226.200 C 274.799 227.300,274.977 228.275,275.056 228.367 C 275.399 228.764,275.150 225.341,274.797 224.800 C 274.530 224.390,274.486 224.835,274.659 226.200 M352.622 226.775 L 351.044 228.600 352.803 226.914 C 353.770 225.986,354.480 225.165,354.380 225.088 C 354.281 225.012,353.490 225.771,352.622 226.775 M316.800 225.825 C 315.834 226.191,315.655 226.362,316.224 226.377 C 316.676 226.390,317.396 226.136,317.824 225.813 C 318.735 225.123,318.653 225.124,316.800 225.825 M137.481 227.117 C 136.667 227.951,136.000 228.774,136.000 228.945 C 136.000 229.117,136.225 229.010,136.500 228.707 C 136.775 228.405,137.529 227.582,138.175 226.879 C 139.817 225.091,139.278 225.276,137.481 227.117 M291.984 226.823 C 291.505 227.496,291.179 228.113,291.261 228.194 C 291.343 228.276,291.814 227.726,292.308 226.971 C 293.423 225.271,293.171 225.156,291.984 226.823 M313.200 226.800 C 312.712 227.115,312.764 227.189,313.476 227.194 C 313.958 227.197,314.464 227.020,314.600 226.800 C 314.915 226.291,313.988 226.291,313.200 226.800 M278.018 228.218 C 277.745 229.107,277.606 230.277,277.707 230.818 C 277.856 231.615,277.901 231.550,277.946 230.474 C 277.975 229.744,278.192 228.789,278.426 228.352 C 278.660 227.914,278.776 227.341,278.682 227.078 C 278.589 226.815,278.290 227.328,278.018 228.218 M290.600 230.000 C 290.450 230.473,290.417 230.950,290.527 231.060 C 290.637 231.170,290.850 230.873,291.000 230.400 C 291.150 229.927,291.183 229.450,291.073 229.340 C 290.963 229.230,290.750 229.527,290.600 230.000 M245.800 231.200 C 245.508 231.673,245.899 231.673,247.000 231.200 C 247.771 230.869,247.769 230.855,246.924 230.828 C 246.442 230.813,245.936 230.980,245.800 231.200 M242.976 232.222 C 242.212 232.834,242.213 232.838,243.000 232.476 C 243.440 232.274,244.070 232.008,244.400 231.886 C 244.918 231.693,244.915 231.659,244.376 231.632 C 244.034 231.614,243.404 231.880,242.976 232.222 M349.415 231.906 C 349.644 232.068,350.226 232.830,350.709 233.600 C 351.191 234.370,351.590 234.841,351.593 234.647 C 351.606 233.987,349.937 231.600,349.467 231.606 C 349.158 231.610,349.140 231.711,349.415 231.906 M237.800 235.600 C 237.168 236.260,236.760 236.800,236.894 236.800 C 237.029 236.800,237.678 236.260,238.338 235.600 C 238.998 234.940,239.406 234.400,239.244 234.400 C 239.082 234.400,238.432 234.940,237.800 235.600 M220.093 245.506 L 220.000 256.412 218.700 257.219 C 217.345 258.060,211.323 258.216,209.400 257.460 C 208.938 257.278,209.022 257.404,209.600 257.758 C 211.041 258.642,216.716 258.618,218.599 257.720 C 220.471 256.827,220.444 257.029,220.305 245.000 L 220.186 234.600 220.093 245.506 M253.400 237.981 C 252.502 238.130,254.212 238.237,257.297 238.224 C 260.320 238.211,262.795 238.065,262.797 237.900 C 262.801 237.541,255.669 237.602,253.400 237.981 M277.650 238.654 C 277.623 239.344,277.880 240.514,278.222 241.254 C 278.619 242.112,278.749 242.238,278.583 241.600 C 278.440 241.050,278.182 239.880,278.011 239.000 C 277.721 237.508,277.697 237.485,277.650 238.654 M139.919 239.597 C 140.293 240.256,140.747 240.796,140.927 240.797 C 141.107 240.799,140.870 240.260,140.400 239.600 C 139.302 238.058,139.042 238.057,139.919 239.597 M338.581 240.900 L 337.000 242.600 338.794 241.000 C 339.780 240.120,340.665 239.355,340.761 239.300 C 340.856 239.245,340.760 239.200,340.548 239.200 C 340.336 239.200,339.451 239.965,338.581 240.900 M123.481 241.117 C 122.667 241.951,122.000 242.777,122.000 242.951 C 122.000 243.126,122.703 242.492,123.562 241.543 L 125.124 239.817 125.986 240.809 L 126.847 241.800 126.178 240.700 C 125.322 239.294,125.250 239.306,123.481 241.117 M247.786 241.227 C 247.437 241.902,247.207 242.614,247.276 242.809 C 247.344 243.004,247.702 242.451,248.070 241.582 C 248.865 239.706,248.687 239.484,247.786 241.227 M340.802 240.300 C 340.803 240.465,341.257 241.140,341.810 241.800 L 342.816 243.000 341.968 241.500 C 341.145 240.042,340.798 239.685,340.802 240.300 M310.800 241.200 C 310.350 241.491,310.550 241.588,311.600 241.588 C 312.650 241.588,312.850 241.491,312.400 241.200 C 312.070 240.987,311.710 240.812,311.600 240.812 C 311.490 240.812,311.130 240.987,310.800 241.200 M142.436 242.933 C 143.177 243.996,143.940 244.963,144.133 245.082 C 144.676 245.418,143.121 243.119,142.049 242.000 C 141.437 241.362,141.577 241.700,142.436 242.933 M262.332 242.400 C 262.206 242.950,261.978 243.760,261.826 244.200 C 261.674 244.640,261.842 244.495,262.199 243.877 C 262.557 243.259,262.785 242.449,262.705 242.077 C 262.602 241.594,262.495 241.687,262.332 242.400 M314.800 241.888 C 315.350 241.987,315.971 242.232,316.180 242.434 C 316.389 242.635,316.749 242.794,316.980 242.787 C 317.211 242.780,317.051 242.510,316.624 242.187 C 316.196 241.864,315.386 241.625,314.824 241.654 L 313.800 241.709 314.800 241.888 M159.862 243.100 C 159.760 243.265,160.481 243.418,161.463 243.439 C 162.554 243.463,163.045 243.348,162.725 243.145 C 162.068 242.729,160.110 242.698,159.862 243.100 M234.524 245.000 C 234.526 246.320,234.601 246.812,234.690 246.093 C 234.779 245.374,234.777 244.294,234.686 243.693 C 234.595 243.092,234.522 243.680,234.524 245.000 M293.618 244.219 C 295.041 245.687,297.792 247.395,296.791 246.189 C 296.522 245.865,296.073 245.600,295.792 245.600 C 295.512 245.600,294.730 244.970,294.054 244.200 C 293.378 243.430,292.694 242.800,292.534 242.800 C 292.374 242.800,292.862 243.439,293.618 244.219 M343.600 244.400 C 344.698 245.942,344.958 245.943,344.081 244.403 C 343.707 243.744,343.253 243.204,343.073 243.203 C 342.893 243.201,343.130 243.740,343.600 244.400 M335.996 249.600 C 335.885 253.010,335.649 256.160,335.471 256.600 C 335.294 257.040,335.435 256.907,335.785 256.304 C 336.304 255.410,336.401 254.122,336.309 249.304 L 336.197 243.400 335.996 249.600 M247.209 244.286 C 247.190 245.342,248.567 247.550,249.556 248.048 C 251.309 248.932,251.465 248.903,250.048 247.958 C 249.305 247.462,248.364 246.323,247.957 245.428 C 247.550 244.533,247.214 244.019,247.209 244.286 M155.537 245.500 C 154.251 247.034,153.559 248.491,153.721 249.324 C 153.884 250.166,153.893 250.164,153.946 249.258 C 153.975 248.740,154.534 247.525,155.186 246.558 C 156.410 244.745,156.567 244.272,155.537 245.500 M320.571 246.220 C 320.555 246.957,320.690 247.468,320.871 247.356 C 321.283 247.102,321.305 245.312,320.900 245.063 C 320.735 244.962,320.587 245.483,320.571 246.220 M198.400 247.200 C 197.961 247.484,198.263 247.589,199.524 247.594 C 200.572 247.598,201.150 247.443,201.000 247.200 C 200.686 246.693,199.185 246.693,198.400 247.200 M299.907 247.090 C 300.626 247.179,301.706 247.177,302.307 247.086 C 302.908 246.995,302.320 246.922,301.000 246.924 C 299.680 246.926,299.188 247.001,299.907 247.090 M361.200 248.000 C 362.298 249.542,362.558 249.543,361.681 248.003 C 361.307 247.344,360.853 246.804,360.673 246.803 C 360.493 246.801,360.730 247.340,361.200 248.000 M131.600 248.800 C 132.070 249.460,132.544 250.000,132.654 250.000 C 132.764 250.000,132.470 249.460,132.000 248.800 C 131.530 248.140,131.056 247.600,130.946 247.600 C 130.836 247.600,131.130 248.140,131.600 248.800 M257.600 248.200 C 257.050 248.514,256.780 248.772,257.000 248.772 C 257.220 248.772,257.850 248.514,258.400 248.200 C 258.950 247.886,259.220 247.628,259.000 247.628 C 258.780 247.628,258.150 247.886,257.600 248.200 M281.852 249.254 C 283.013 251.058,286.314 254.400,286.935 254.400 C 287.128 254.400,286.569 253.815,285.691 253.100 C 284.814 252.385,283.498 250.933,282.768 249.874 C 281.077 247.423,280.361 246.938,281.852 249.254 M319.009 249.889 C 318.367 250.904,317.202 252.362,316.421 253.129 C 315.133 254.392,316.021 253.857,317.630 252.400 C 318.414 251.690,320.520 248.386,320.317 248.184 C 320.240 248.107,319.651 248.874,319.009 249.889 M177.667 249.600 C 177.644 250.150,177.890 250.949,178.213 251.376 C 178.536 251.804,178.800 251.975,178.800 251.756 C 178.800 251.538,178.635 251.189,178.434 250.980 C 178.232 250.771,177.987 250.150,177.888 249.600 L 177.709 248.600 177.667 249.600 M253.100 249.082 C 253.595 249.178,254.405 249.178,254.900 249.082 C 255.395 248.987,254.990 248.909,254.000 248.909 C 253.010 248.909,252.605 248.987,253.100 249.082 M347.600 250.000 C 348.070 250.660,348.544 251.200,348.654 251.200 C 348.764 251.200,348.470 250.660,348.000 250.000 C 347.530 249.340,347.056 248.800,346.946 248.800 C 346.836 248.800,347.130 249.340,347.600 250.000 M148.073 250.600 C 148.323 251.150,148.684 251.600,148.873 251.600 C 149.063 251.600,148.924 251.150,148.563 250.600 C 148.203 250.050,147.843 249.600,147.763 249.600 C 147.683 249.600,147.822 250.050,148.073 250.600 M133.600 251.600 C 134.070 252.260,134.544 252.800,134.654 252.800 C 134.764 252.800,134.470 252.260,134.000 251.600 C 133.530 250.940,133.056 250.400,132.946 250.400 C 132.836 250.400,133.130 250.940,133.600 251.600 M349.588 252.723 C 350.082 253.451,350.576 253.957,350.684 253.849 C 350.792 253.741,350.388 253.146,349.784 252.526 L 348.688 251.400 349.588 252.723 M149.200 252.367 C 149.200 252.568,149.353 252.793,149.540 252.867 C 150.212 253.130,152.023 256.440,151.756 256.915 C 151.549 257.282,151.603 257.289,151.980 256.941 C 152.371 256.581,152.171 256.003,151.044 254.241 C 149.653 252.067,149.200 251.607,149.200 252.367 M153.660 252.714 C 153.599 253.650,154.455 255.236,155.700 256.493 C 157.026 257.832,156.859 257.197,155.453 255.554 C 154.678 254.648,153.971 253.433,153.882 252.854 C 153.740 251.930,153.712 251.913,153.660 252.714 M135.600 254.400 C 136.070 255.060,136.544 255.600,136.654 255.600 C 136.764 255.600,136.470 255.060,136.000 254.400 C 135.530 253.740,135.056 253.200,134.946 253.200 C 134.836 253.200,135.130 253.740,135.600 254.400 M168.000 253.552 C 168.000 254.397,164.090 257.997,163.119 258.046 C 162.480 258.079,162.406 258.147,162.876 258.271 C 164.315 258.651,169.121 254.188,168.232 253.299 C 168.104 253.171,168.000 253.285,168.000 253.552 M261.800 255.055 C 261.019 255.668,261.022 255.676,261.950 255.399 C 262.572 255.212,263.028 255.302,263.271 255.657 C 263.552 256.068,263.613 256.013,263.522 255.433 C 263.360 254.416,262.777 254.288,261.800 255.055 M351.591 255.588 C 352.057 256.241,352.642 256.902,352.891 257.056 C 353.141 257.211,352.841 256.676,352.225 255.868 C 350.888 254.115,350.384 253.892,351.591 255.588 M312.224 255.813 C 311.796 256.136,311.627 256.400,311.847 256.400 C 312.067 256.400,312.596 256.136,313.024 255.813 C 313.451 255.490,313.620 255.225,313.400 255.225 C 313.180 255.225,312.651 255.490,312.224 255.813 M182.400 256.367 C 183.363 257.152,184.000 257.408,184.000 257.010 C 184.000 256.906,183.415 256.535,182.700 256.186 L 181.400 255.552 182.400 256.367 M55.600 257.785 C 57.867 258.544,62.225 258.544,63.800 257.786 C 64.708 257.349,64.756 257.280,64.000 257.504 C 62.726 257.881,57.034 257.864,55.200 257.478 C 54.179 257.263,54.287 257.346,55.600 257.785 M90.000 257.769 C 91.391 258.607,97.428 258.600,98.800 257.758 C 99.350 257.421,99.440 257.292,99.000 257.472 C 97.975 257.891,91.313 257.899,90.000 257.483 L 89.000 257.167 90.000 257.769 M110.200 257.786 C 111.878 258.594,117.868 258.576,119.200 257.758 C 119.750 257.421,119.840 257.292,119.400 257.472 C 118.403 257.881,111.353 257.904,110.000 257.504 C 109.244 257.280,109.292 257.349,110.200 257.786 M138.976 257.778 C 140.082 258.663,148.949 258.648,150.400 257.758 C 150.961 257.414,151.049 257.285,150.600 257.465 C 149.287 257.991,140.143 258.099,139.116 257.601 C 138.239 257.175,138.233 257.183,138.976 257.778 M157.776 257.770 C 158.204 258.117,159.014 258.382,159.576 258.359 C 160.518 258.321,160.500 258.294,159.365 258.023 C 158.686 257.861,157.876 257.596,157.565 257.434 C 157.254 257.273,157.349 257.424,157.776 257.770 M185.800 257.776 C 186.460 258.099,187.720 258.350,188.600 258.332 C 190.166 258.301,190.158 258.294,188.200 257.992 C 187.100 257.822,185.840 257.572,185.400 257.436 C 184.960 257.299,185.140 257.453,185.800 257.776 M199.850 257.483 C 199.694 257.639,198.719 257.885,197.683 258.030 C 195.947 258.273,195.914 258.297,197.254 258.347 C 198.054 258.376,199.314 258.137,200.054 257.816 C 200.794 257.494,201.115 257.224,200.767 257.216 C 200.418 257.207,200.006 257.328,199.850 257.483 M244.519 257.839 C 245.163 258.188,246.268 258.380,247.119 258.290 L 248.600 258.134 246.924 258.067 C 246.002 258.030,245.136 257.820,245.000 257.600 C 244.864 257.380,244.448 257.207,244.076 257.216 C 243.623 257.227,243.770 257.432,244.519 257.839 M256.800 257.600 C 256.470 257.813,255.660 258.017,255.000 258.054 C 253.915 258.114,253.897 258.135,254.811 258.278 C 255.367 258.365,256.447 258.165,257.211 257.834 C 257.975 257.502,258.330 257.227,258.000 257.222 C 257.670 257.217,257.130 257.387,256.800 257.600 M265.200 257.758 C 266.511 258.562,271.370 258.574,273.000 257.778 C 273.950 257.313,273.992 257.250,273.200 257.473 C 271.805 257.866,265.968 257.863,265.000 257.470 C 264.560 257.291,264.650 257.421,265.200 257.758 M293.946 257.778 C 294.686 258.120,295.856 258.377,296.546 258.350 C 297.715 258.303,297.692 258.279,296.200 257.989 C 295.320 257.818,294.150 257.560,293.600 257.417 C 292.962 257.251,293.088 257.381,293.946 257.778 M307.600 257.600 C 307.270 257.813,306.460 258.017,305.800 258.054 C 304.715 258.114,304.697 258.135,305.611 258.278 C 306.167 258.365,307.247 258.165,308.011 257.834 C 308.775 257.502,309.130 257.227,308.800 257.222 C 308.470 257.217,307.930 257.387,307.600 257.600 M326.200 257.825 C 328.042 258.558,332.937 258.445,334.219 257.640 C 334.898 257.214,334.843 257.192,333.800 257.471 C 332.284 257.877,327.383 257.888,325.800 257.490 C 325.037 257.298,325.183 257.420,326.200 257.825 M354.176 257.805 C 355.260 258.635,363.688 258.614,365.400 257.778 C 366.362 257.307,366.402 257.246,365.600 257.466 C 363.839 257.949,355.973 258.068,354.661 257.631 C 353.503 257.245,353.463 257.260,354.176 257.805 " stroke="none" fill="#c9d9dc" fill-rule="evenodd"></path><path id="path7" d="M48.472 193.500 C 54.341 193.562,64.061 193.562,70.072 193.500 C 76.082 193.438,71.280 193.387,59.400 193.386 C 47.520 193.386,42.602 193.437,48.472 193.500 M120.573 203.800 C 120.573 209.300,120.630 211.605,120.699 208.923 C 120.768 206.241,120.768 201.741,120.699 198.923 C 120.630 196.105,120.574 198.300,120.573 203.800 M335.378 207.000 C 335.379 214.040,335.433 216.864,335.499 213.275 C 335.566 209.686,335.566 203.926,335.499 200.475 C 335.433 197.024,335.378 199.960,335.378 207.000 M86.914 200.200 C 86.917 201.300,86.995 201.703,87.087 201.095 C 87.179 200.486,87.177 199.586,87.082 199.095 C 86.987 198.603,86.911 199.100,86.914 200.200 M83.301 200.600 C 83.305 201.480,83.387 201.793,83.483 201.295 C 83.579 200.798,83.575 200.078,83.475 199.695 C 83.375 199.313,83.296 199.720,83.301 200.600 M190.172 208.368 C 190.194 211.006,190.330 211.771,190.800 211.898 C 191.225 212.013,191.259 211.961,190.918 211.718 C 190.636 211.517,190.376 210.057,190.290 208.188 L 190.143 205.000 190.172 208.368 M108.514 210.200 C 108.517 211.300,108.595 211.703,108.687 211.095 C 108.779 210.486,108.777 209.586,108.682 209.095 C 108.587 208.603,108.511 209.100,108.514 210.200 M92.912 211.495 C 93.964 211.577,95.584 211.576,96.512 211.492 C 97.440 211.408,96.580 211.341,94.600 211.342 C 92.620 211.343,91.860 211.412,92.912 211.495 M140.300 211.496 C 141.675 211.574,143.925 211.574,145.300 211.496 C 146.675 211.418,145.550 211.354,142.800 211.354 C 140.050 211.354,138.925 211.418,140.300 211.496 M212.700 211.493 C 213.635 211.577,215.165 211.577,216.100 211.493 C 217.035 211.409,216.270 211.340,214.400 211.340 C 212.530 211.340,211.765 211.409,212.700 211.493 M355.300 211.496 C 356.565 211.575,358.635 211.575,359.900 211.496 C 361.165 211.416,360.130 211.351,357.600 211.351 C 355.070 211.351,354.035 211.416,355.300 211.496 M197.700 211.887 C 198.305 211.978,199.295 211.978,199.900 211.887 C 200.505 211.795,200.010 211.720,198.800 211.720 C 197.590 211.720,197.095 211.795,197.700 211.887 M202.144 216.800 C 202.144 218.890,202.212 219.745,202.294 218.700 C 202.376 217.655,202.376 215.945,202.294 214.900 C 202.212 213.855,202.144 214.710,202.144 216.800 M207.786 233.600 C 207.786 244.930,207.837 249.565,207.900 243.900 C 207.962 238.235,207.962 228.965,207.900 223.300 C 207.837 217.635,207.786 222.270,207.786 233.600 M88.186 234.600 C 88.186 246.260,88.237 250.972,88.300 245.072 C 88.362 239.171,88.362 229.631,88.300 223.872 C 88.237 218.112,88.186 222.940,88.186 234.600 M284.575 216.900 L 283.400 218.200 284.700 217.025 C 285.415 216.379,286.000 215.794,286.000 215.725 C 286.000 215.416,285.670 215.688,284.575 216.900 M254.900 220.276 C 255.285 220.376,255.915 220.376,256.300 220.276 C 256.685 220.175,256.370 220.093,255.600 220.093 C 254.830 220.093,254.515 220.175,254.900 220.276 M175.100 222.282 C 175.595 222.378,176.405 222.378,176.900 222.282 C 177.395 222.187,176.990 222.109,176.000 222.109 C 175.010 222.109,174.605 222.187,175.100 222.282 M190.181 222.506 C 190.074 222.784,190.038 227.959,190.100 234.006 L 190.213 245.000 190.307 233.714 L 190.400 222.427 194.700 222.298 L 199.000 222.170 194.687 222.085 C 191.516 222.022,190.324 222.134,190.181 222.506 M262.501 227.400 C 262.505 228.280,262.587 228.593,262.683 228.095 C 262.779 227.598,262.775 226.878,262.675 226.495 C 262.575 226.113,262.496 226.520,262.501 227.400 M274.979 241.600 C 274.979 248.970,275.033 251.985,275.099 248.300 C 275.165 244.615,275.165 238.585,275.099 234.900 C 275.033 231.215,274.979 234.230,274.979 241.600 M253.305 230.687 C 253.914 230.779,254.814 230.777,255.305 230.682 C 255.797 230.587,255.300 230.511,254.200 230.514 C 253.100 230.517,252.697 230.595,253.305 230.687 M323.770 239.400 C 323.771 244.240,323.829 246.165,323.899 243.678 C 323.969 241.191,323.969 237.231,323.898 234.878 C 323.828 232.525,323.770 234.560,323.770 239.400 M277.737 234.600 C 277.739 236.360,277.809 237.030,277.893 236.089 C 277.978 235.149,277.977 233.709,277.891 232.889 C 277.805 232.070,277.736 232.840,277.737 234.600 M290.137 234.600 C 290.139 236.360,290.209 237.030,290.293 236.089 C 290.378 235.149,290.377 233.709,290.291 232.889 C 290.205 232.070,290.136 232.840,290.137 234.600 M177.763 242.400 C 177.763 246.030,177.823 247.515,177.898 245.700 C 177.972 243.885,177.972 240.915,177.898 239.100 C 177.823 237.285,177.763 238.770,177.763 242.400 M257.712 237.495 C 258.764 237.577,260.384 237.576,261.312 237.492 C 262.240 237.408,261.380 237.341,259.400 237.342 C 257.420 237.343,256.660 237.412,257.712 237.495 M307.375 244.900 L 306.200 246.200 307.500 245.025 C 308.712 243.930,308.984 243.600,308.675 243.600 C 308.606 243.600,308.021 244.185,307.375 244.900 M202.144 252.400 C 202.144 254.490,202.212 255.345,202.294 254.300 C 202.376 253.255,202.376 251.545,202.294 250.500 C 202.212 249.455,202.144 250.310,202.144 252.400 M52.924 253.400 C 52.926 254.720,53.001 255.212,53.090 254.493 C 53.179 253.774,53.177 252.694,53.086 252.093 C 52.995 251.492,52.922 252.080,52.924 253.400 M58.311 257.893 C 59.251 257.978,60.691 257.977,61.511 257.891 C 62.330 257.805,61.560 257.736,59.800 257.737 C 58.040 257.739,57.370 257.809,58.311 257.893 M92.912 257.895 C 93.964 257.977,95.584 257.976,96.512 257.892 C 97.440 257.808,96.580 257.741,94.600 257.742 C 92.620 257.743,91.860 257.812,92.912 257.895 M112.900 257.894 C 113.945 257.976,115.655 257.976,116.700 257.894 C 117.745 257.812,116.890 257.744,114.800 257.744 C 112.710 257.744,111.855 257.812,112.900 257.894 M142.117 257.897 C 143.611 257.974,145.951 257.974,147.317 257.896 C 148.682 257.818,147.460 257.755,144.600 257.755 C 141.740 257.756,140.622 257.820,142.117 257.897 M212.100 257.894 C 213.145 257.976,214.855 257.976,215.900 257.894 C 216.945 257.812,216.090 257.744,214.000 257.744 C 211.910 257.744,211.055 257.812,212.100 257.894 M267.511 257.893 C 268.451 257.978,269.891 257.977,270.711 257.891 C 271.530 257.805,270.760 257.736,269.000 257.737 C 267.240 257.739,266.570 257.809,267.511 257.893 M328.291 257.889 C 329.001 257.977,330.261 257.979,331.091 257.892 C 331.921 257.805,331.340 257.733,329.800 257.731 C 328.260 257.729,327.581 257.800,328.291 257.889 M357.516 257.897 C 358.899 257.975,361.059 257.974,362.316 257.895 C 363.572 257.816,362.440 257.752,359.800 257.753 C 357.160 257.753,356.132 257.818,357.516 257.897 M191.511 258.293 C 192.451 258.378,193.891 258.377,194.711 258.291 C 195.530 258.205,194.760 258.136,193.000 258.137 C 191.240 258.139,190.570 258.209,191.511 258.293 M249.700 258.291 C 250.525 258.378,251.875 258.378,252.700 258.291 C 253.525 258.205,252.850 258.134,251.200 258.134 C 249.550 258.134,248.875 258.205,249.700 258.291 " stroke="none" fill="#bdbcbc" fill-rule="evenodd"></path><path id="path8" d="M319.695 162.659 C 313.689 165.649,312.132 173.668,316.617 178.505 C 323.080 185.475,334.400 181.154,334.400 171.718 C 334.400 164.102,326.531 159.255,319.695 162.659 M329.002 163.380 C 337.728 168.494,334.153 181.064,324.000 180.973 C 311.373 180.861,311.733 162.572,324.365 162.433 C 326.827 162.406,327.614 162.566,329.002 163.380 " stroke="none" fill="#fcac9c" fill-rule="evenodd"></path></g></svg>